<svg width="500" height="500" viewBox="0 0 500 500" fill="none" xmlns="http://www.w3.org/2000/svg">
<path d="M353.16 435.37C351.57 434.01 348.02 429.69 350.76 424.66C351.76 422.82 353.89 421.91 355.81 421.1C357.795 420.431 359.667 419.464 361.36 418.23C364.36 415.67 365.2 411.42 367.19 408.01C369.49 404.09 373.76 401.15 378.28 401.36C383.46 401.59 387.77 405.82 389.73 410.64C391.69 415.46 391.73 420.81 391.8 426.01C391.8 428.89 391.69 432.14 389.58 434.08C387.63 435.87 384.7 435.89 382.06 435.81L353.78 434.94" fill="#F5F5F5"/>
<path d="M407.25 357.6H332.87L346.27 437.49C346.548 439.154 347.292 440.706 348.416 441.965C349.54 443.223 350.998 444.137 352.62 444.6L352.88 444.67C353.1 444.73 353.32 444.8 353.54 444.84C354.041 444.941 354.549 445.001 355.06 445.02V445.09H355.42H388.57C389.182 445.088 389.791 445.024 390.39 444.9C392.322 444.595 394.103 443.669 395.461 442.261C396.82 440.854 397.683 439.042 397.92 437.1L404.39 382L404.68 379.81L407.2 358L407.25 357.6ZM393.25 408.6H385.61L386.39 385.41H395.23L393.25 408.6ZM395.97 385.41H403.28L400.56 408.6H394L395.97 385.41ZM374.16 434.3L373.7 414.16H384.7L384 434.26L374.16 434.3ZM362.28 414.16H372.96L373.42 434.3H363.85L362.28 414.16ZM363.11 434.3H354.11C353.26 428.86 352.11 421.8 350.95 414.16H361.5L363.11 434.3ZM361.85 408.6L360 385.37H372.25L372.78 408.56L361.85 408.6ZM373.57 408.6L373 385.37H385.61L384.84 408.56L373.57 408.6ZM372.91 379.85L372.41 358.38H386.54L385.83 379.85H372.91ZM372.17 379.85H359.58L357.92 358.38H371.65L372.17 379.85ZM358.87 379.85H345.56L344.24 371.56C342.85 362.87 342.33 359.61 342.04 358.38H357.18L358.87 379.85ZM359.31 385.41L361.11 408.6H350.11C349.74 406.25 349.37 403.87 348.99 401.49C348.13 396.01 347.27 390.54 346.46 385.41H359.31ZM349.37 408.6H342.2L338.31 385.41H345.72C346.82 392.54 348.08 400.51 349.34 408.56L349.37 408.6ZM350.25 414.16C351.34 421.16 352.42 428 353.4 434.3H346.51L343.13 414.16H350.25ZM384.76 434.3L385.43 414.16H392.77L391 434.26L384.76 434.3ZM386.57 379.85L387.28 358.38H397.54L395.7 379.85H386.57ZM341.37 358.38C341.67 359.93 343.02 368.38 344.84 379.85H337.38L333.77 358.38H341.37ZM397.54 434.3H391.79L393.51 414.16H399.9L397.54 434.3ZM403.93 379.85H396.44L398.28 358.38H406.45L403.93 379.85Z" fill="#E0E0E0"/>
<path d="M114.24 188.36C114.24 188.36 114.07 188.05 113.78 187.47L112.49 184.89L107.63 175.07C103.45 166.6 97.4802 154.48 90.2302 139.77L90.5202 139.87L23.9202 172.5L24.0402 172.15L47.8302 220.84L47.5102 220.73L95.5902 197.34L109.3 190.7L113 189L113.94 188.56L114.28 188.41L113.98 188.57L113 189L109.41 190.79L95.8102 197.51L47.7202 221.16L47.5102 221.27L47.4002 221.05L23.5702 172.39L23.4502 172.15L23.6902 172.04L90.3302 139.5L90.5202 139.41L90.6102 139.6L107.87 175.11L112.61 184.93L113.84 187.5L114.24 188.36Z" fill="#E0E0E0"/>
<path d="M90.4201 139.68C90.4134 139.769 90.3932 139.857 90.3601 139.94C90.3001 140.14 90.2201 140.39 90.1201 140.69C89.8901 141.39 89.5701 142.35 89.1201 143.56C88.2501 146.09 87.0101 149.67 85.4801 154.08L73.3401 188.73L73.0001 188.89H72.9401H72.8601L72.7001 188.84L72.3801 188.73L71.7401 188.52L70.4801 188.1L68.0001 187.22L63.1101 185.59L53.8601 182.5L38.2101 177.24L27.6701 173.65L24.8201 172.65L24.0801 172.38C23.9914 172.357 23.9069 172.32 23.8301 172.27C23.9193 172.277 24.007 172.297 24.0901 172.33L24.8501 172.55L27.7401 173.46L38.3301 176.89L54.0001 182L63.2601 185.06L68.1601 186.69L70.6601 187.52L71.9301 187.94L72.5601 188.15L72.8801 188.25L73.0401 188.31H73.1201H73.1801C73.0401 188.38 73.5201 188.16 72.8701 188.48C77.6801 174.98 82.0301 162.77 85.1901 153.88L89.0001 143.49C89.4401 142.29 89.8001 141.34 90.0001 140.66L90.2901 139.92L90.4201 139.68Z" fill="#E0E0E0"/>
<path d="M56.6303 183.18C56.7703 183.18 54.8703 191.75 52.3803 202.25C49.8903 212.75 47.7503 221.25 47.6103 221.2C47.4703 221.15 49.3803 212.63 51.8703 202.13C54.3603 191.63 56.4903 183.14 56.6303 183.18Z" fill="#E0E0E0"/>
<path d="M114.94 188.72C114.88 188.84 106.88 184.92 97.0701 179.96C87.2601 175 79.3601 170.87 79.4301 170.74C79.5001 170.61 87.5001 174.53 97.3101 179.5C107.12 184.47 115 188.59 114.94 188.72Z" fill="#E0E0E0"/>
<path d="M443.73 194.08C443.73 194.08 443.88 193.84 444.18 193.41L445.52 191.52L450.62 184.38L469.09 158.66V158.96L417.69 121.83L418.06 121.77L392.51 157.05L392.46 156.72L429.38 183.58L439.92 191.28L442.73 193.34L443.45 193.88C443.61 194.01 443.7 194.07 443.7 194.08L443.46 193.92L442.74 193.42L439.94 191.42L429.37 183.85L392.21 157.1L392 157L392.14 156.8L417.65 121.5L417.81 121.29L418.02 121.44L469.37 158.65L469.54 158.77L469.41 158.94L450.71 184.6C448.48 187.6 446.71 190.01 445.54 191.65C444.96 192.44 444.54 193.05 444.19 193.47C443.84 193.89 443.73 194.08 443.73 194.08Z" fill="#E0E0E0"/>
<path d="M469.26 158.79C468.974 158.858 468.683 158.908 468.39 158.94L465.9 159.29L456.73 160.46L426.46 164.15C425.89 163.73 426.3 164.02 426.17 163.92V163.82V163.68L426.12 163.41L426.01 162.86L425.79 161.78C425.64 161.06 425.5 160.34 425.35 159.63C425.07 158.21 424.78 156.81 424.51 155.43C423.96 152.68 423.42 150.02 422.92 147.49C421.92 142.49 421.01 137.89 420.25 134.05C419.49 130.21 418.92 127.16 418.5 124.97L418.05 122.5C417.991 122.213 417.948 121.922 417.92 121.63C418.022 121.906 418.099 122.19 418.15 122.48C418.28 123.08 418.47 123.9 418.7 124.93L420.61 133.93C421.4 137.77 422.34 142.31 423.39 147.36C423.9 149.89 424.45 152.54 425.01 155.29C425.29 156.67 425.57 158.07 425.86 159.49C426.01 160.2 426.15 160.91 426.3 161.63L426.52 162.72L426.63 163.26L426.68 163.54V163.67V163.79C426.56 163.7 426.97 164.01 426.4 163.6L456.69 160.07L465.88 159.07L468.38 158.82C468.672 158.785 468.967 158.775 469.26 158.79Z" fill="#E0E0E0"/>
<path d="M423.57 149.77C423.57 149.91 416.57 151.64 407.93 153.64C399.29 155.64 392.2 157.14 392.16 157C392.12 156.86 399.16 155.13 407.81 153.13C416.46 151.13 423.54 149.63 423.57 149.77Z" fill="#E0E0E0"/>
<path d="M443.76 194.73C443.62 194.73 443.12 187.42 442.66 178.39C442.2 169.36 441.94 162.03 442.09 162.02C442.24 162.01 442.72 169.33 443.18 178.36C443.64 187.39 443.9 194.72 443.76 194.73Z" fill="#E0E0E0"/>
<path d="M342.92 377.24L343.7 377.54L345.92 378.46L354.35 381.98L384.67 394.73L384.4 394.84L410.1 334.17L410.24 334.52L368.59 316.8L368.9 316.67L350.24 360.3C347.95 365.63 346.14 369.86 344.88 372.77C344.26 374.2 343.78 375.31 343.44 376.08L343.07 376.94L342.92 377.24C342.92 377.24 342.92 377.14 343.03 376.95C343.14 376.76 343.23 376.47 343.37 376.11L344.74 372.82L350 360.35C354.53 349.62 360.94 334.42 368.5 316.48L368.59 316.26L368.81 316.36L410.45 334L410.69 334.1L410.58 334.34C400.89 357.13 391.93 378.17 384.78 394.98L384.7 395.17L384.51 395.09L354.15 382.09L345.81 378.49L343.65 377.55L342.92 377.24Z" fill="#E0E0E0"/>
<path d="M384.59 394.93C384.548 394.865 384.515 394.794 384.49 394.72C384.42 394.55 384.34 394.34 384.23 394.09C384.01 393.49 383.7 392.67 383.31 391.64C382.51 389.47 381.38 386.4 380 382.64L369.26 352.82C369.54 352.17 369.35 352.64 369.41 352.49H369.48L369.61 352.43L369.87 352.31L370.4 352.07L371.45 351.6L373.52 350.66L377.58 348.83L385.25 345.38L398.25 339.56L407.03 335.68L409.43 334.68L410.06 334.43C410.21 334.37 410.28 334.35 410.28 334.36L410.08 334.48L409.48 334.78L407.12 335.9L398.4 339.9L385.4 345.82L377.74 349.3L373.74 351.13L371.66 352.07L370.66 352.55L370.14 352.78L369.87 352.9L369.74 352.96H369.68C369.73 352.82 369.53 353.29 369.8 352.65C373.93 364.29 377.67 374.83 380.39 382.51C381.71 386.31 382.79 389.4 383.55 391.58C383.9 392.63 384.18 393.45 384.38 394.06C384.46 394.32 384.53 394.53 384.59 394.71C384.601 394.783 384.601 394.857 384.59 394.93Z" fill="#E0E0E0"/>
<path d="M383.15 346.56C383.02 346.62 379.64 339.92 375.61 331.56C371.58 323.2 368.42 316.44 368.55 316.37C368.68 316.3 372.05 323.01 376.08 331.37C380.11 339.73 383.27 346.5 383.15 346.56Z" fill="#E0E0E0"/>
<path d="M342.27 377.42C342.27 377.28 349.53 375.09 358.57 372.53C367.61 369.97 375 368 375 368.15C375 368.3 367.74 370.48 358.7 373.04C349.66 375.6 342.31 377.56 342.27 377.42Z" fill="#E0E0E0"/>
<path d="M407.55 53.67H108.56V305.02H407.55V53.67Z" fill="#EBEBEB"/>
<path d="M109.14 71C109.14 70.86 175.82 70.74 258.05 70.74C340.28 70.74 407 70.89 407 71C407 71.11 340.34 71.26 258.08 71.26C175.82 71.26 109.14 71.17 109.14 71Z" fill="#E0E0E0"/>
<path d="M118.24 65.2301C120.007 65.2301 121.44 63.7974 121.44 62.0301C121.44 60.2628 120.007 58.8301 118.24 58.8301C116.473 58.8301 115.04 60.2628 115.04 62.0301C115.04 63.7974 116.473 65.2301 118.24 65.2301Z" fill="#E0E0E0"/>
<path d="M127.13 65.2301C128.897 65.2301 130.33 63.7974 130.33 62.0301C130.33 60.2628 128.897 58.8301 127.13 58.8301C125.363 58.8301 123.93 60.2628 123.93 62.0301C123.93 63.7974 125.363 65.2301 127.13 65.2301Z" fill="#E0E0E0"/>
<path d="M137 65.2301C138.768 65.2301 140.2 63.7974 140.2 62.0301C140.2 60.2628 138.768 58.8301 137 58.8301C135.233 58.8301 133.8 60.2628 133.8 62.0301C133.8 63.7974 135.233 65.2301 137 65.2301Z" fill="#E0E0E0"/>
<path d="M460.65 445.58C460.65 445.73 363.06 445.84 242.71 445.84C122.36 445.84 24.71 445.73 24.71 445.58C24.71 445.43 122.28 445.32 242.71 445.32C363.14 445.32 460.65 445.44 460.65 445.58Z" fill="#263238"/>
<path d="M396 331.71C396 329.88 395.91 229.18 395.78 73.81L396 74H89.24L89.5 73.74C89.5 167.2 89.5 255.35 89.5 331.64L89.26 331.41L396.05 331.64L89.26 331.87H89V331.64C89 255.35 89 167.2 89 73.74V73.48H89.29H396.05H396.27V73.7C396.13 229.18 396 329.88 396 331.71Z" fill="#FAFAFA"/>
<path d="M396.04 73.8099H89.25V331.71H396.04V73.8099Z" fill="#FAFAFA"/>
<path d="M200.01 91.62H89.8501V116.87H200.01V91.62Z" fill="#EBEBEB"/>
<path d="M117.63 112C117.63 112 117.63 111.67 117.63 111.07C117.63 110.47 117.63 109.58 117.63 108.53C117.63 106.29 117.57 103.19 117.52 99.45L117.73 99.66H99.4598L99.7198 99.4V105.91C99.7198 108.01 99.7198 110.02 99.7198 111.91L99.4798 111.67L112.59 111.79L116.37 111.86H117.37H117.74C117.312 111.908 116.881 111.928 116.45 111.92L112.72 111.98L99.4598 112.1H99.2298V112C99.2298 110.09 99.2298 108.08 99.2298 106V102.78C99.2298 102.24 99.2298 101.69 99.2298 101.14V99.43C98.9998 99.66 99.5498 99.11 99.4998 99.17H117.77H117.98V99.38C117.98 103.18 117.9 106.32 117.87 108.59C117.87 109.59 117.87 110.45 117.87 111.09C117.819 111.4 117.739 111.705 117.63 112Z" fill="#263238"/>
<path d="M117.63 99.41C117.63 99.41 117.42 99.7 116.98 100.15C116.54 100.6 115.89 101.23 115.08 102.01C113.46 103.57 111.19 105.7 108.67 108.01C107.96 108.01 108.47 108.01 108.31 108.01H108.25L108.13 107.9L107.9 107.68L107.43 107.25L106.53 106.41L104.82 104.82L101.91 102C101.1 101.22 100.45 100.59 100 100.14C99.7514 99.9234 99.5328 99.6746 99.3501 99.4C99.3501 99.4 99.6601 99.58 100.14 99.99C100.62 100.4 101.31 100.99 102.14 101.73L105.08 104.37L106.8 105.94L107.71 106.77L108.18 107.2L108.41 107.42L108.53 107.52L108.59 107.58H108.27C110.79 105.26 113.09 103.17 114.78 101.68C115.62 100.94 116.31 100.34 116.78 99.94C117.036 99.7234 117.323 99.5449 117.63 99.41Z" fill="#263238"/>
<path d="M105.44 105C104.627 106.326 103.668 107.557 102.58 108.67C101.626 109.899 100.536 111.016 99.3301 112C100.145 110.678 101.104 109.45 102.19 108.34C103.146 107.109 104.236 105.989 105.44 105Z" fill="#263238"/>
<path d="M117.75 112.11C116.571 111.06 115.511 109.883 114.59 108.6C113.533 107.421 112.607 106.13 111.83 104.75C113.011 105.802 114.071 106.983 114.99 108.27C116.048 109.445 116.974 110.732 117.75 112.11Z" fill="#263238"/>
<path d="M187.36 103.8C187.36 103.95 174.46 104.06 158.56 104.06C142.66 104.06 129.77 103.95 129.77 103.8C129.77 103.65 142.66 103.54 158.56 103.54C174.46 103.54 187.36 103.66 187.36 103.8Z" fill="#263238"/>
<path d="M396.04 203.78H198.61V247.04H396.04V203.78Z" fill="#585799"/>
<g opacity="0.8">
<path d="M396.04 203.78H198.61V247.04H396.04V203.78Z" fill="white"/>
</g>
<path d="M225.27 217.3H213.56C212.317 217.3 211.31 218.307 211.31 219.55V231.26C211.31 232.503 212.317 233.51 213.56 233.51H225.27C226.513 233.51 227.52 232.503 227.52 231.26V219.55C227.52 218.307 226.513 217.3 225.27 217.3Z" fill="#585799"/>
<path d="M218.19 229C217.974 229 217.763 228.93 217.59 228.8L214.32 226.34C214.202 226.267 214.101 226.169 214.023 226.055C213.944 225.94 213.891 225.81 213.865 225.674C213.84 225.537 213.843 225.397 213.875 225.262C213.907 225.127 213.967 225 214.05 224.889C214.134 224.778 214.24 224.686 214.361 224.618C214.482 224.55 214.616 224.509 214.755 224.496C214.893 224.483 215.032 224.498 215.164 224.542C215.296 224.586 215.417 224.657 215.52 224.75L218.07 226.66L223.19 221.1C223.37 220.905 223.621 220.79 223.886 220.779C224.151 220.769 224.41 220.865 224.605 221.045C224.8 221.225 224.915 221.476 224.925 221.741C224.936 222.006 224.84 222.265 224.66 222.46L218.93 228.68C218.836 228.782 218.721 228.863 218.594 228.918C218.466 228.973 218.329 229.001 218.19 229Z" fill="white"/>
<path d="M396.04 160.3H198.61V203.56H396.04V160.3Z" fill="#585799"/>
<path d="M394.85 203.72C394.85 203.87 351.23 203.98 297.43 203.98C243.63 203.98 200.01 203.87 200.01 203.72C200.01 203.57 243.62 203.46 297.43 203.46C351.24 203.46 394.85 203.58 394.85 203.72Z" fill="#263238"/>
<path d="M396.15 290.26H198.72V331.71H396.15V290.26Z" fill="#585799"/>
<g opacity="0.8">
<path d="M396.15 290.26H198.72V331.71H396.15V290.26Z" fill="white"/>
</g>
<path d="M225.37 303.79H213.66C212.418 303.79 211.41 304.797 211.41 306.04V317.75C211.41 318.993 212.418 320 213.66 320H225.37C226.613 320 227.62 318.993 227.62 317.75V306.04C227.62 304.797 226.613 303.79 225.37 303.79Z" fill="#585799"/>
<path d="M218.29 315.5C218.074 315.5 217.863 315.43 217.69 315.3L214.42 312.84C214.208 312.681 214.068 312.444 214.03 312.181C213.993 311.919 214.061 311.652 214.22 311.44C214.379 311.228 214.616 311.088 214.879 311.05C215.141 311.013 215.408 311.081 215.62 311.24L218.17 313.16L223.29 307.6C223.376 307.494 223.483 307.406 223.604 307.342C223.725 307.279 223.858 307.241 223.994 307.23C224.13 307.22 224.267 307.238 224.396 307.283C224.526 307.328 224.644 307.399 224.745 307.491C224.846 307.584 224.926 307.696 224.982 307.821C225.038 307.946 225.067 308.08 225.069 308.217C225.07 308.354 225.043 308.49 224.99 308.616C224.937 308.742 224.859 308.855 224.76 308.95L219 315.18C218.909 315.278 218.799 315.357 218.677 315.412C218.556 315.467 218.424 315.497 218.29 315.5Z" fill="white"/>
<g opacity="0.8">
<path d="M396.04 160.3H198.61V203.56H396.04V160.3Z" fill="white"/>
</g>
<path d="M225.27 173.82H213.56C212.317 173.82 211.31 174.827 211.31 176.07V187.78C211.31 189.023 212.317 190.03 213.56 190.03H225.27C226.513 190.03 227.52 189.023 227.52 187.78V176.07C227.52 174.827 226.513 173.82 225.27 173.82Z" fill="#585799"/>
<path d="M218.19 185.53C217.974 185.53 217.763 185.46 217.59 185.33L214.32 182.87C214.202 182.797 214.101 182.699 214.023 182.585C213.944 182.47 213.891 182.34 213.865 182.204C213.84 182.067 213.843 181.927 213.875 181.792C213.907 181.657 213.967 181.53 214.05 181.419C214.134 181.308 214.24 181.216 214.361 181.148C214.482 181.08 214.616 181.039 214.755 181.026C214.893 181.013 215.032 181.028 215.164 181.072C215.296 181.116 215.417 181.187 215.52 181.28L218.07 183.19L223.19 177.63C223.369 177.435 223.618 177.32 223.883 177.309C224.147 177.298 224.405 177.391 224.6 177.57C224.698 177.659 224.777 177.766 224.833 177.886C224.889 178.006 224.921 178.135 224.926 178.267C224.932 178.399 224.911 178.531 224.865 178.655C224.82 178.779 224.75 178.893 224.66 178.99L218.93 185.21C218.836 185.312 218.721 185.393 218.594 185.448C218.466 185.503 218.329 185.531 218.19 185.53Z" fill="white"/>
<path d="M396 331.71C396 329.88 395.91 229.18 395.78 73.81L396 74H89.24L89.5 73.74C89.5 167.2 89.5 255.35 89.5 331.64L89.26 331.41L396.05 331.64L89.26 331.87H89V331.64C89 255.35 89 167.2 89 73.74V73.48H89.29H396.05H396.27V73.7C396.13 229.18 396 329.88 396 331.71Z" fill="#585799"/>
<path d="M89.8501 91.62C89.8501 91.47 158.26 91.36 242.64 91.36C327.02 91.36 395.45 91.47 395.45 91.62C395.45 91.77 327.05 91.88 242.64 91.88C158.23 91.88 89.8501 91.76 89.8501 91.62Z" fill="#585799"/>
<path d="M99.1902 85.66C101.002 85.66 102.47 84.1915 102.47 82.38C102.47 80.5685 101.002 79.1 99.1902 79.1C97.3787 79.1 95.9102 80.5685 95.9102 82.38C95.9102 84.1915 97.3787 85.66 99.1902 85.66Z" fill="#585799"/>
<path d="M108.31 85.66C110.121 85.66 111.59 84.1915 111.59 82.38C111.59 80.5685 110.121 79.1 108.31 79.1C106.498 79.1 105.03 80.5685 105.03 82.38C105.03 84.1915 106.498 85.66 108.31 85.66Z" fill="#585799"/>
<path d="M120.75 80.06C121.208 80.5188 121.521 81.1033 121.647 81.7395C121.773 82.3757 121.708 83.0351 121.46 83.6343C121.212 84.2335 120.791 84.7457 120.252 85.106C119.713 85.4663 119.079 85.6586 118.43 85.6586C117.781 85.6586 117.147 85.4663 116.608 85.106C116.068 84.7457 115.648 84.2335 115.4 83.6343C115.151 83.0351 115.086 82.3757 115.213 81.7395C115.339 81.1033 115.651 80.5188 116.11 80.06C116.415 79.7552 116.776 79.5135 117.174 79.3485C117.572 79.1835 117.999 79.0986 118.43 79.0986C118.861 79.0986 119.287 79.1835 119.686 79.3485C120.084 79.5135 120.445 79.7552 120.75 80.06Z" fill="#585799"/>
<path d="M130 127C130.236 126.971 130.474 126.971 130.71 127L132.79 126.94L140.41 126.84H140.51L140.57 126.92L143.93 131.34L143.98 131.41V131.49C143.98 133.49 143.98 135.71 143.98 138.01V138.27H140.66H126.94H126.72V138C126.72 135.74 126.72 133.73 126.78 132L129.12 128.33C129.382 127.867 129.676 127.422 130 127C129.957 127.134 129.896 127.262 129.82 127.38L129.25 128.38L127.09 132.07V131.98C127.09 133.68 127.09 135.69 127.14 137.98L126.92 137.76H140.64H143.71L143.45 138.02C143.45 135.72 143.45 133.52 143.45 131.5L143.5 131.64L140.2 127.19L140.37 127.27L132.83 127.17H130.73C130.482 127.135 130.238 127.078 130 127Z" fill="#263238"/>
<path d="M143.75 131.78C143.277 131.907 142.79 131.974 142.3 131.98C141.38 132.06 140.06 132.15 138.49 132.25L138.7 132.03C138.662 132.866 138.388 133.673 137.91 134.36C137.649 134.737 137.307 135.051 136.91 135.28C136.47 135.483 135.994 135.596 135.51 135.61C134.994 135.631 134.481 135.538 134.005 135.338C133.53 135.137 133.105 134.834 132.76 134.45C132.187 133.763 131.801 132.94 131.64 132.06L131.86 132.24C130.4 132.24 129.18 132.19 128.33 132.15C127.882 132.159 127.435 132.108 127 132C127.437 131.906 127.883 131.865 128.33 131.88C129.18 131.88 130.4 131.81 131.86 131.78H132V131.97C132.17 132.752 132.531 133.481 133.05 134.09C133.345 134.421 133.71 134.682 134.118 134.855C134.526 135.028 134.967 135.108 135.41 135.09C135.818 135.088 136.221 134.996 136.59 134.82C136.937 134.641 137.238 134.384 137.47 134.07C137.894 133.465 138.15 132.757 138.21 132.02V131.81H138.4C139.98 131.76 141.3 131.73 142.23 131.72C142.737 131.675 143.248 131.696 143.75 131.78Z" fill="#263238"/>
<path d="M181.34 127.55C181.619 127.487 181.904 127.46 182.19 127.47V127.63C180.19 127.73 174 127.81 166.74 127.81C162.24 127.81 158.16 127.81 155.21 127.73L151.72 127.65C151.291 127.664 150.862 127.631 150.44 127.55C150.862 127.469 151.291 127.436 151.72 127.45L155.21 127.37C158.16 127.32 162.21 127.29 166.74 127.29C174 127.29 180.15 127.37 182.19 127.47V127.63C181.904 127.647 181.618 127.62 181.34 127.55Z" fill="#263238"/>
<path d="M181.34 134.1C181.618 134.03 181.904 134.004 182.19 134.02V134.18C180.19 134.28 174 134.36 166.74 134.36C162.24 134.36 158.16 134.36 155.21 134.28L151.72 134.2C151.291 134.208 150.862 134.174 150.44 134.1C150.862 134.018 151.291 133.981 151.72 133.99L155.21 133.91C158.16 133.91 162.21 133.84 166.74 133.84C174 133.84 180.15 133.91 182.19 134.02V134.18C181.905 134.183 181.62 134.156 181.34 134.1Z" fill="#263238"/>
<path d="M181.34 140.64C181.619 140.577 181.904 140.55 182.19 140.56V140.72C180.19 140.83 174 140.9 166.74 140.9C162.24 140.9 158.16 140.9 155.21 140.83L151.72 140.74C151.291 140.754 150.862 140.721 150.44 140.64C150.862 140.566 151.291 140.532 151.72 140.54L155.21 140.46C158.16 140.41 162.21 140.38 166.74 140.38C174 140.38 180.15 140.46 182.19 140.56V140.72C181.904 140.736 181.618 140.709 181.34 140.64Z" fill="#263238"/>
<path d="M130 173.87C130.234 173.823 130.472 173.803 130.71 173.81L132.79 173.76L140.41 173.66H140.51L140.57 173.74L143.93 178.16L143.98 178.23V178.31C143.98 180.31 143.98 182.53 143.98 184.83V185.09H140.66H126.94H126.72V184.87C126.72 182.61 126.72 180.6 126.78 178.87V178.82L129.12 175.15C129.376 174.719 129.66 174.304 129.97 173.91C129.927 174.044 129.866 174.172 129.79 174.29L129.22 175.29L127.1 179V178.91C127.1 180.61 127.1 182.62 127.15 184.91L126.93 184.69H140.65H143.72L143.46 184.95C143.46 182.65 143.46 180.45 143.46 178.43L143.51 178.57L140.21 174.12L140.38 174.2L132.84 174.1H130.74C130.487 174.046 130.239 173.969 130 173.87Z" fill="#263238"/>
<path d="M143.75 178.62C143.277 178.747 142.79 178.815 142.3 178.82C141.38 178.9 140.06 178.99 138.49 179.09L138.7 178.87C138.662 179.706 138.388 180.513 137.91 181.2C137.649 181.577 137.307 181.891 136.91 182.12C136.47 182.323 135.994 182.436 135.51 182.45C134.994 182.471 134.481 182.378 134.005 182.178C133.53 181.977 133.105 181.674 132.76 181.29C132.187 180.603 131.801 179.78 131.64 178.9L131.86 179.08C130.4 179.08 129.18 179.03 128.33 178.99C127.883 179.005 127.436 178.962 127 178.86C127.437 178.765 127.883 178.721 128.33 178.73L131.86 178.64H132V178.83C132.17 179.612 132.531 180.341 133.05 180.95C133.345 181.281 133.71 181.542 134.118 181.715C134.526 181.888 134.967 181.968 135.41 181.95C135.818 181.948 136.221 181.856 136.59 181.68C136.937 181.501 137.238 181.244 137.47 180.93C137.894 180.325 138.15 179.617 138.21 178.88V178.67H138.4C139.98 178.67 141.3 178.59 142.23 178.58C142.736 178.529 143.247 178.542 143.75 178.62Z" fill="#263238"/>
<path d="M181.34 174.39C181.619 174.327 181.904 174.3 182.19 174.31V174.47C180.19 174.57 174 174.65 166.74 174.65C162.24 174.65 158.16 174.65 155.21 174.57L151.72 174.49C151.291 174.504 150.862 174.471 150.44 174.39C150.862 174.309 151.291 174.276 151.72 174.29L155.21 174.21C158.16 174.16 162.21 174.13 166.74 174.13C174 174.13 180.15 174.21 182.19 174.31V174.47C181.904 174.48 181.619 174.453 181.34 174.39Z" fill="#263238"/>
<path d="M181.34 180.94C181.618 180.871 181.904 180.844 182.19 180.86V181C180.19 181.1 174 181.18 166.74 181.18C162.24 181.18 158.16 181.18 155.21 181.1L151.72 181.02C151.291 181.028 150.862 180.995 150.44 180.92C150.862 180.838 151.291 180.801 151.72 180.81L155.21 180.73C158.16 180.68 162.21 180.66 166.74 180.66C174 180.66 180.15 180.73 182.19 180.84V181C181.905 181.01 181.62 180.99 181.34 180.94Z" fill="#263238"/>
<path d="M181.34 187.48C181.619 187.417 181.904 187.39 182.19 187.4V187.56C180.19 187.67 174 187.74 166.74 187.74C162.24 187.74 158.16 187.74 155.21 187.67L151.72 187.58C151.291 187.594 150.862 187.561 150.44 187.48C150.862 187.405 151.291 187.372 151.72 187.38L155.21 187.3C158.16 187.25 162.21 187.22 166.74 187.22C174 187.22 180.15 187.3 182.19 187.4V187.56C181.904 187.576 181.618 187.549 181.34 187.48Z" fill="#263238"/>
<path d="M130 220.71C130.234 220.663 130.472 220.643 130.71 220.65L132.79 220.6L140.41 220.5H140.51L140.57 220.58L143.93 225L143.98 225.07V225.15C143.98 227.15 143.98 229.37 143.98 231.67V231.93H140.66H126.94H126.72V231.71C126.72 229.45 126.72 227.44 126.78 225.71L129.12 222.04C129.376 221.609 129.66 221.194 129.97 220.8C129.927 220.934 129.866 221.062 129.79 221.18L129.22 222.18L127.06 225.87V225.78C127.06 227.48 127.06 229.49 127.11 231.78L126.89 231.56H140.61H143.68L143.42 231.82C143.42 229.52 143.42 227.32 143.42 225.3L143.47 225.44L140.17 220.99L140.34 221.07L132.8 220.97H130.7C130.46 220.904 130.225 220.817 130 220.71Z" fill="#263238"/>
<path d="M143.75 225.46C143.277 225.587 142.79 225.654 142.3 225.66C141.38 225.74 140.06 225.83 138.49 225.93L138.7 225.71C138.662 226.546 138.388 227.353 137.91 228.04C137.649 228.417 137.307 228.731 136.91 228.96C136.471 229.165 135.994 229.274 135.51 229.28C134.995 229.305 134.481 229.215 134.005 229.016C133.529 228.817 133.104 228.514 132.76 228.13C132.187 227.443 131.801 226.62 131.64 225.74L131.86 225.92C130.4 225.92 129.18 225.92 128.33 225.83C127.883 225.845 127.436 225.802 127 225.7C127.437 225.605 127.883 225.561 128.33 225.57L131.86 225.48H132V225.67C132.17 226.452 132.531 227.181 133.05 227.79C133.345 228.121 133.71 228.382 134.118 228.555C134.526 228.728 134.967 228.808 135.41 228.79C135.818 228.788 136.221 228.696 136.59 228.52C136.937 228.341 137.238 228.084 137.47 227.77C137.894 227.165 138.15 226.457 138.21 225.72V225.51H138.4C139.98 225.45 141.3 225.43 142.23 225.42C142.736 225.369 143.247 225.382 143.75 225.46Z" fill="#263238"/>
<path d="M181.34 221.23C181.619 221.167 181.904 221.14 182.19 221.15V221.31C180.19 221.41 174 221.49 166.74 221.49C162.24 221.49 158.16 221.49 155.21 221.41L151.72 221.33C151.291 221.344 150.862 221.311 150.44 221.23C150.862 221.149 151.291 221.116 151.72 221.13L155.21 221.05C158.16 221 162.21 220.97 166.74 220.97C174 220.97 180.15 221.05 182.19 221.15V221.31C181.904 221.32 181.619 221.293 181.34 221.23Z" fill="#263238"/>
<path d="M181.34 227.78C181.618 227.711 181.904 227.684 182.19 227.7V227.86C180.19 227.96 174 228.04 166.74 228.04C162.24 228.04 158.16 228.04 155.21 227.96L151.72 227.88C151.291 227.888 150.862 227.854 150.44 227.78C150.862 227.698 151.291 227.661 151.72 227.67L155.21 227.59C158.16 227.54 162.21 227.52 166.74 227.52C174 227.52 180.15 227.59 182.19 227.7V227.86C181.905 227.863 181.62 227.836 181.34 227.78Z" fill="#263238"/>
<path d="M181.34 234.32C181.619 234.257 181.904 234.23 182.19 234.24V234.4C180.19 234.51 174 234.58 166.74 234.58C162.24 234.58 158.16 234.58 155.21 234.51L151.72 234.42C151.291 234.434 150.862 234.401 150.44 234.32C150.862 234.245 151.291 234.212 151.72 234.22L155.21 234.14C158.16 234.14 162.21 234.06 166.74 234.06C174 234.06 180.15 234.14 182.19 234.24V234.4C181.904 234.416 181.618 234.389 181.34 234.32Z" fill="#263238"/>
<path d="M380.12 190.55H372.5C372.102 190.557 371.707 190.484 371.337 190.336C370.967 190.188 370.63 189.968 370.346 189.689C370.063 189.41 369.837 189.077 369.683 188.71C369.529 188.342 369.45 187.948 369.45 187.55V174.85H370.45V187.51C370.45 187.777 370.503 188.041 370.607 188.287C370.711 188.533 370.862 188.756 371.054 188.942C371.245 189.129 371.471 189.275 371.719 189.372C371.968 189.47 372.233 189.517 372.5 189.51H380.12C380.651 189.51 381.159 189.299 381.534 188.924C381.909 188.549 382.12 188.04 382.12 187.51V175.29H383.12V187.51C383.125 187.907 383.052 188.302 382.903 188.67C382.755 189.039 382.535 189.374 382.256 189.657C381.977 189.94 381.644 190.165 381.278 190.318C380.911 190.471 380.518 190.55 380.12 190.55Z" fill="#585799"/>
<path d="M384.42 174.92H368.2V175.92H384.42V174.92Z" fill="#585799"/>
<path d="M373.36 175.42H372.36V174.31C372.36 173.78 372.571 173.271 372.946 172.896C373.321 172.521 373.829 172.31 374.36 172.31H378.36C378.89 172.31 379.399 172.521 379.774 172.896C380.149 173.271 380.36 173.78 380.36 174.31V175.2H379.36V174.31C379.36 174.045 379.255 173.79 379.067 173.603C378.879 173.415 378.625 173.31 378.36 173.31H374.36C374.095 173.31 373.84 173.415 373.653 173.603C373.465 173.79 373.36 174.045 373.36 174.31V175.42Z" fill="#585799"/>
<path d="M374 186.81C373.743 185.392 373.656 183.949 373.74 182.51C373.656 181.075 373.743 179.635 374 178.22C374.262 179.634 374.349 181.075 374.26 182.51C374.35 183.949 374.262 185.393 374 186.81Z" fill="#585799"/>
<path d="M376.35 186.81C376.093 185.392 376.006 183.949 376.09 182.51C376.006 181.075 376.094 179.635 376.35 178.22C376.612 179.634 376.7 181.075 376.61 182.51C376.7 183.949 376.613 185.393 376.35 186.81Z" fill="#585799"/>
<path d="M378.72 186.81C378.463 185.392 378.376 183.949 378.46 182.51C378.376 181.075 378.464 179.635 378.72 178.22C378.982 179.634 379.07 181.075 378.98 182.51C379.07 183.949 378.983 185.393 378.72 186.81Z" fill="#585799"/>
<path d="M380.12 231.55H372.5C371.692 231.547 370.918 231.225 370.346 230.654C369.775 230.082 369.453 229.308 369.45 228.5V215.84H370.45V228.5C370.45 229.044 370.666 229.565 371.051 229.95C371.435 230.334 371.956 230.55 372.5 230.55H380.12C380.655 230.537 381.164 230.315 381.538 229.932C381.911 229.549 382.12 229.035 382.12 228.5V216.28H383.12V228.5C383.127 228.898 383.054 229.294 382.906 229.663C382.759 230.033 382.539 230.37 382.259 230.654C381.98 230.938 381.647 231.163 381.28 231.317C380.913 231.471 380.518 231.55 380.12 231.55Z" fill="#585799"/>
<path d="M384.42 215.91H368.2V216.91H384.42V215.91Z" fill="#585799"/>
<path d="M373.36 216.41H372.36V215.3C372.36 214.77 372.571 214.261 372.946 213.886C373.321 213.511 373.829 213.3 374.36 213.3H378.36C378.89 213.3 379.399 213.511 379.774 213.886C380.149 214.261 380.36 214.77 380.36 215.3V216.19H379.36V215.3C379.36 215.035 379.255 214.78 379.067 214.593C378.879 214.405 378.625 214.3 378.36 214.3H374.36C374.095 214.3 373.84 214.405 373.653 214.593C373.465 214.78 373.36 215.035 373.36 215.3V216.41Z" fill="#585799"/>
<path d="M374 227.8C373.654 224.947 373.654 222.063 374 219.21C374.347 222.063 374.347 224.947 374 227.8Z" fill="#585799"/>
<path d="M376.35 227.8C376.003 224.947 376.003 222.063 376.35 219.21C376.696 222.063 376.696 224.947 376.35 227.8Z" fill="#585799"/>
<path d="M378.72 227.8C378.373 224.947 378.373 222.063 378.72 219.21C379.067 222.063 379.067 224.947 378.72 227.8Z" fill="#585799"/>
<path d="M380.12 321.66H372.5C372.102 321.667 371.707 321.594 371.337 321.446C370.967 321.298 370.63 321.078 370.346 320.799C370.063 320.52 369.837 320.187 369.683 319.82C369.529 319.452 369.45 319.058 369.45 318.66V306H370.45V318.66C370.45 318.927 370.503 319.191 370.607 319.437C370.711 319.683 370.862 319.906 371.054 320.092C371.245 320.279 371.471 320.425 371.719 320.522C371.968 320.62 372.233 320.667 372.5 320.66H380.12C380.651 320.66 381.159 320.449 381.534 320.074C381.909 319.699 382.12 319.19 382.12 318.66V306.4H383.12V318.62C383.125 319.017 383.052 319.412 382.903 319.78C382.755 320.149 382.535 320.484 382.256 320.767C381.977 321.05 381.644 321.275 381.278 321.428C380.911 321.581 380.518 321.66 380.12 321.66Z" fill="#585799"/>
<path d="M384.42 306.03H368.2V307.03H384.42V306.03Z" fill="#585799"/>
<path d="M373.36 306.53H372.36V305.41C372.36 304.879 372.571 304.371 372.946 303.996C373.321 303.621 373.829 303.41 374.36 303.41H378.36C378.89 303.41 379.399 303.621 379.774 303.996C380.149 304.371 380.36 304.879 380.36 305.41V306.31H379.36V305.41C379.36 305.145 379.255 304.89 379.067 304.703C378.879 304.515 378.625 304.41 378.36 304.41H374.36C374.095 304.41 373.84 304.515 373.653 304.703C373.465 304.89 373.36 305.145 373.36 305.41V306.53Z" fill="#585799"/>
<path d="M374 317.92C373.654 315.067 373.654 312.183 374 309.33C374.347 312.183 374.347 315.067 374 317.92Z" fill="#585799"/>
<path d="M376.35 317.92C376.003 315.067 376.003 312.183 376.35 309.33C376.696 312.183 376.696 315.067 376.35 317.92Z" fill="#585799"/>
<path d="M378.72 317.92C378.373 315.067 378.373 312.183 378.72 309.33C379.067 312.183 379.067 315.067 378.72 317.92Z" fill="#585799"/>
<path d="M384.26 143.3C384.224 142.991 384.207 142.681 384.21 142.37C384.21 141.72 384.21 140.88 384.21 139.82C384.21 137.59 384.14 134.49 384.1 130.74L384.31 130.95L366 131L366.26 130.74V134.03C366.26 135.12 366.26 136.19 366.26 137.24C366.26 139.34 366.26 141.36 366.26 143.24L366.02 143L379.12 143.12L382.91 143.18H383.91H384.28C383.85 143.202 383.42 143.202 382.99 143.18L379.26 143.25L366 143.37H365.76V143.13C365.76 141.22 365.76 139.2 365.76 137.13V130.63C365.53 130.86 366.08 130.31 366.02 130.36L384.3 130.42H384.51V130.62C384.51 134.42 384.43 137.57 384.41 139.83C384.41 140.83 384.41 141.7 384.35 142.33C384.344 142.655 384.314 142.979 384.26 143.3Z" fill="#263238"/>
<path d="M384.26 130.74C384.077 131.015 383.858 131.263 383.61 131.48C383.16 131.93 382.51 132.57 381.7 133.35C380.08 134.91 377.82 137.03 375.29 139.35H374.93L374.87 139.29L374.76 139.18L374.52 138.97L374.06 138.54L373.15 137.7L371.45 136.11L368.58 133.39C367.77 132.61 367.12 131.97 366.68 131.52C366.431 131.303 366.213 131.055 366.03 130.78C366.314 130.947 366.579 131.145 366.82 131.37C367.3 131.78 367.99 132.37 368.82 133.12L371.76 135.75L373.49 137.32L374.4 138.16L374.86 138.58L375.1 138.8L375.22 138.91H375.28C375.12 138.91 375.64 138.91 374.93 138.91C377.45 136.58 379.76 134.5 381.44 133.01C382.29 132.26 382.98 131.67 383.44 131.26C383.69 131.052 383.965 130.878 384.26 130.74Z" fill="#263238"/>
<path d="M372.07 136.36C371.244 137.671 370.282 138.891 369.2 140C368.247 141.23 367.157 142.347 365.95 143.33C366.761 142.002 367.72 140.77 368.81 139.66C369.768 138.44 370.862 137.332 372.07 136.36Z" fill="#263238"/>
<path d="M384.37 143.44C383.194 142.387 382.134 141.21 381.21 139.93C380.157 138.754 379.234 137.466 378.46 136.09C379.636 137.143 380.696 138.32 381.62 139.6C382.677 140.773 383.6 142.061 384.37 143.44Z" fill="#263238"/>
<path d="M394.85 116.87C394.85 117.01 351.23 117.13 297.43 117.13C243.63 117.13 200 117 200 116.87C200 116.74 243.61 116.61 297.42 116.61C351.23 116.61 394.85 116.73 394.85 116.87Z" fill="#263238"/>
<path d="M394.85 160.3C394.85 160.44 351.23 160.56 297.43 160.56C243.63 160.56 200 160.44 200 160.3C200 160.16 243.61 160.04 297.42 160.04C351.23 160.04 394.85 160.15 394.85 160.3Z" fill="#263238"/>
<path d="M394.85 246.26C394.85 246.4 351.23 246.52 297.43 246.52C243.63 246.52 200 246.4 200 246.26C200 246.12 243.61 246 297.42 246C351.23 246 394.85 246.11 394.85 246.26Z" fill="#263238"/>
<path d="M394.85 290.26C394.85 290.41 351.23 290.52 297.43 290.52C243.63 290.52 200.01 290.41 200.01 290.26C200.01 290.11 243.62 290 297.43 290C351.24 290 394.85 290.12 394.85 290.26Z" fill="#263238"/>
<path d="M225.28 147C225.28 147 225.5 147 225.88 146.86C226.43 146.685 226.89 146.301 227.16 145.79C227.55 145.14 227.35 144.17 227.38 143.07C227.41 141.97 227.38 140.72 227.38 139.35C227.38 137.98 227.38 136.45 227.38 134.84C227.38 134.43 227.38 134.02 227.38 133.6C227.414 133.2 227.38 132.798 227.28 132.41C227.154 132.028 226.915 131.693 226.596 131.449C226.277 131.204 225.891 131.062 225.49 131.04H213.56C213.096 131.044 212.648 131.208 212.293 131.505C211.937 131.803 211.696 132.214 211.61 132.67C211.54 133.59 211.61 134.67 211.61 135.67C211.61 137.67 211.61 139.57 211.61 141.4C211.61 142.31 211.61 143.2 211.61 144.07C211.583 144.474 211.603 144.88 211.67 145.28C211.755 145.658 211.946 146.005 212.22 146.28C212.484 146.531 212.807 146.71 213.16 146.8C213.52 146.861 213.885 146.881 214.25 146.86H216.42L222.95 146.94L224.73 146.99C224.938 146.985 225.145 147.002 225.35 147.04C225.144 147.068 224.935 147.068 224.73 147.04L222.95 147.09L216.42 147.18H214.25C213.852 147.208 213.453 147.188 213.06 147.12C212.623 147.021 212.221 146.804 211.9 146.492C211.579 146.179 211.35 145.784 211.24 145.35C211.155 144.915 211.128 144.472 211.16 144.03C211.16 143.16 211.16 142.27 211.16 141.36C211.16 139.53 211.16 137.62 211.16 135.63V134.13C211.126 133.607 211.126 133.083 211.16 132.56C211.277 131.994 211.586 131.487 212.034 131.122C212.482 130.758 213.042 130.559 213.62 130.56H225.5C225.992 130.594 226.463 130.774 226.853 131.077C227.243 131.38 227.534 131.791 227.69 132.26C227.805 132.697 227.846 133.15 227.81 133.6C227.81 134.02 227.81 134.43 227.81 134.84C227.81 136.45 227.81 137.96 227.81 139.35C227.81 140.74 227.81 141.97 227.81 143.07C227.81 143.62 227.81 144.13 227.81 144.6C227.823 145.05 227.716 145.495 227.5 145.89C227.184 146.425 226.67 146.813 226.07 146.97C225.814 147.053 225.541 147.063 225.28 147Z" fill="#263238"/>
<path d="M225.28 276.77C225.28 276.77 225.5 276.77 225.88 276.63C226.43 276.455 226.89 276.071 227.16 275.56C227.55 274.91 227.35 273.94 227.38 272.84C227.41 271.74 227.38 270.49 227.38 269.12C227.38 267.75 227.38 266.22 227.38 264.61C227.38 264.2 227.38 263.79 227.38 263.37C227.414 262.971 227.38 262.568 227.28 262.18C227.154 261.798 226.915 261.463 226.596 261.219C226.277 260.974 225.891 260.832 225.49 260.81H213.56C213.098 260.813 212.651 260.976 212.295 261.272C211.94 261.567 211.698 261.976 211.61 262.43C211.54 263.36 211.61 264.43 211.61 265.43C211.61 267.43 211.61 269.33 211.61 271.16C211.61 272.07 211.61 272.96 211.61 273.82C211.583 274.228 211.603 274.637 211.67 275.04C211.752 275.42 211.943 275.767 212.22 276.04C212.48 276.296 212.805 276.476 213.16 276.56C213.519 276.63 213.885 276.653 214.25 276.63H216.42L222.95 276.71L224.73 276.76C224.936 276.739 225.144 276.739 225.35 276.76C225.146 276.805 224.938 276.822 224.73 276.81L222.95 276.86L216.42 276.94H214.25C213.852 276.968 213.453 276.948 213.06 276.88C212.623 276.781 212.221 276.564 211.9 276.252C211.579 275.939 211.35 275.544 211.24 275.11C211.154 274.672 211.127 274.225 211.16 273.78C211.16 272.92 211.16 272.03 211.16 271.12C211.16 269.29 211.16 267.38 211.16 265.39V263.89C211.126 263.367 211.126 262.843 211.16 262.32C211.267 261.745 211.571 261.226 212.02 260.852C212.47 260.478 213.035 260.272 213.62 260.27H225.5C225.992 260.304 226.463 260.484 226.853 260.787C227.243 261.09 227.534 261.502 227.69 261.97C227.805 262.407 227.846 262.86 227.81 263.31C227.81 263.73 227.81 264.14 227.81 264.55C227.81 266.16 227.81 267.67 227.81 269.06C227.81 270.45 227.81 271.68 227.81 272.78C227.81 273.33 227.81 273.84 227.81 274.31C227.823 274.76 227.716 275.205 227.5 275.6C227.345 275.865 227.139 276.096 226.893 276.28C226.648 276.464 226.368 276.597 226.07 276.67C225.819 276.77 225.547 276.804 225.28 276.77Z" fill="#263238"/>
<path d="M198.56 328C198.56 328 198.56 327.79 198.56 327.39C198.56 326.99 198.56 326.39 198.56 325.6C198.56 324 198.56 321.68 198.56 318.71C198.56 312.71 198.56 304.06 198.56 293.38C198.56 272 198.82 242.46 199.12 209.83C199.42 177.2 199.65 147.67 199.84 126.27C199.91 115.59 199.96 106.94 200 100.94C200 97.94 200 95.65 200.06 94.06C200.06 93.28 200.06 92.69 200.06 92.27C200.06 91.85 200.06 91.66 200.06 91.66C200.06 91.66 200.06 91.86 200.06 92.27C200.06 92.68 200.06 93.27 200.06 94.06C200.06 95.65 200.06 97.97 200.06 100.94C200.06 106.94 200.06 115.59 200.06 126.27C200.01 147.65 199.8 177.2 199.49 209.83C199.18 242.46 198.96 271.98 198.78 293.38C198.71 304.06 198.66 312.71 198.62 318.71C198.62 321.71 198.62 324 198.56 325.6C198.56 326.37 198.56 326.96 198.56 327.39C198.56 327.82 198.56 328 198.56 328Z" fill="#263238"/>
<path d="M309.91 177.72C309.91 177.86 294.91 177.98 276.35 177.98C257.79 177.98 242.79 177.86 242.79 177.72C242.79 177.58 257.79 177.46 276.35 177.46C294.91 177.46 309.91 177.57 309.91 177.72Z" fill="#263238"/>
<path d="M351.86 185.12C351.86 185.27 327.44 185.38 297.33 185.38C267.22 185.38 242.79 185.27 242.79 185.12C242.79 184.97 267.21 184.86 297.33 184.86C327.45 184.86 351.86 185 351.86 185.12Z" fill="#263238"/>
<path d="M309.91 264.83C309.91 264.97 294.91 265.09 276.35 265.09C257.79 265.09 242.79 264.97 242.79 264.83C242.79 264.69 257.79 264.57 276.35 264.57C294.91 264.57 309.91 264.68 309.91 264.83Z" fill="#263238"/>
<path d="M351.86 272.23C351.86 272.37 327.44 272.49 297.33 272.49C267.22 272.49 242.79 272.37 242.79 272.23C242.79 272.09 267.21 271.97 297.33 271.97C327.45 271.97 351.86 272.09 351.86 272.23Z" fill="#263238"/>
<path d="M309.91 135.86C309.91 136.01 294.91 136.13 276.35 136.13C257.79 136.13 242.79 136.01 242.79 135.86C242.79 135.71 257.79 135.6 276.35 135.6C294.91 135.6 309.91 135.72 309.91 135.86Z" fill="#263238"/>
<path d="M351.86 143.27C351.86 143.41 327.44 143.53 297.33 143.53C267.22 143.53 242.79 143.41 242.79 143.27C242.79 143.13 267.21 143.01 297.33 143.01C327.45 143.01 351.86 143.13 351.86 143.27Z" fill="#263238"/>
<path d="M309.91 220.4C309.91 220.54 294.91 220.66 276.35 220.66C257.79 220.66 242.79 220.54 242.79 220.4C242.79 220.26 257.79 220.14 276.35 220.14C294.91 220.14 309.91 220.26 309.91 220.4Z" fill="#263238"/>
<path d="M351.86 227.8C351.86 227.95 327.44 228.06 297.33 228.06C267.22 228.06 242.79 227.95 242.79 227.8C242.79 227.65 267.21 227.54 297.33 227.54C327.45 227.54 351.86 227.66 351.86 227.8Z" fill="#263238"/>
<path d="M309.91 306.16C309.91 306.3 294.91 306.42 276.35 306.42C257.79 306.42 242.79 306.3 242.79 306.16C242.79 306.02 257.79 305.9 276.35 305.9C294.91 305.9 309.91 306 309.91 306.16Z" fill="#263238"/>
<path d="M351.86 313.56C351.86 313.7 327.44 313.82 297.33 313.82C267.22 313.82 242.79 313.7 242.79 313.56C242.79 313.42 267.21 313.3 297.33 313.3C327.45 313.3 351.86 313.42 351.86 313.56Z" fill="#263238"/>
<path d="M386.07 97.0699H372.86V110.28H386.07V97.0699Z" fill="#E0E0E0"/>
<path d="M364.56 97.0699H351.35V110.28H364.56V97.0699Z" fill="#E0E0E0"/>
<path d="M343.05 97.0699H329.84V110.28H343.05V97.0699Z" fill="#E0E0E0"/>
<path d="M103.29 131.66L108.9 138.98L113.7 131.66H103.29Z" fill="#263238"/>
<path d="M91.1298 226.61C104.13 209.45 117.89 211.87 127.42 216.02C132.173 218.185 136.17 221.723 138.896 226.178C141.623 230.633 142.954 235.802 142.72 241.02C142.56 243.76 141.97 246.64 143.09 249.15C144.88 253.15 150.09 254.32 153.09 257.54C157.22 261.95 156.31 268.92 154.91 274.8C153.51 280.68 152.05 287.38 155.5 292.33C158.67 296.86 164.7 298.08 169.68 300.5C172.984 302.078 175.918 304.335 178.289 307.125C180.66 309.915 182.416 313.175 183.44 316.69C184.407 320.227 184.483 323.949 183.662 327.523C182.84 331.096 181.145 334.411 178.73 337.17C173.89 342.43 166.63 344.77 159.56 345.81C149.222 347.335 138.675 346.548 128.679 343.505C118.682 340.462 109.486 335.238 101.752 328.212C94.0181 321.185 87.9398 312.529 83.9553 302.869C79.9707 293.21 78.1792 282.786 78.7098 272.35" fill="#263238"/>
<path d="M128.1 216.75C126.553 216.741 125.007 216.828 123.47 217.01C119.796 217.723 116.195 218.767 112.71 220.13C108.56 221.58 104.55 222.39 101.63 222.2C100.482 222.158 99.343 221.973 98.2401 221.65C97.8273 221.547 97.4304 221.389 97.0601 221.18C98.5605 221.554 100.095 221.775 101.64 221.84C105.375 221.73 109.064 220.986 112.55 219.64C116.68 218.19 120.55 216.94 123.42 216.64C124.561 216.501 125.713 216.471 126.86 216.55C127.28 216.561 127.697 216.629 128.1 216.75Z" fill="#455A64"/>
<path d="M158.06 353.24C158.56 354.74 168.93 403.74 168.93 403.74L247.82 434.07L243.38 445.58L175.74 439.63C136.26 433.74 134.07 414.37 136.45 392.72L140.54 355.61L158.06 353.24Z" fill="#FFBE9D"/>
<path d="M44.6699 326.82C52.7999 314.51 65.1399 307.41 76.4399 303.48L117.94 306.48C122.581 306.078 127.253 306.706 131.623 308.319C135.993 309.932 139.953 312.49 143.22 315.81L147.08 418.64L156.61 445.64H57.8799L44.6699 326.82Z" fill="#585799"/>
<path d="M144.74 358C144.74 358 144.65 357.95 144.5 357.84L143.83 357.34C143.481 357.051 143.117 356.781 142.74 356.53L141.19 355.53C140.57 355.2 139.89 354.83 139.14 354.46C136.27 353.146 133.195 352.337 130.05 352.07C127.354 351.833 124.637 352.002 121.99 352.57C118.951 353.208 116.062 354.424 113.48 356.15C110.57 357.965 108.245 360.579 106.78 363.68C106.048 365.314 105.735 367.105 105.87 368.89C106.048 370.728 106.741 372.478 107.87 373.94C108.976 375.407 110.613 376.38 112.43 376.65C113.285 376.807 114.168 376.707 114.967 376.364C115.766 376.02 116.445 375.448 116.92 374.72C117.291 373.959 117.49 373.125 117.504 372.279C117.518 371.432 117.346 370.593 117 369.82C116.707 369.037 116.31 368.297 115.82 367.62C115.328 366.966 114.772 366.363 114.16 365.82C111.833 363.767 109.009 362.357 105.97 361.73C103.325 361.147 100.603 360.995 97.9101 361.28C93.9941 361.757 90.1436 362.669 86.4301 364L83.3801 365L82.5901 365.26C82.5016 365.3 82.4068 365.323 82.3101 365.33L82.5701 365.21L83.3501 364.9C84.0301 364.64 85.0501 364.25 86.3501 363.78C90.0538 362.374 93.9105 361.411 97.8401 360.91C100.573 360.599 103.339 360.731 106.03 361.3C109.146 361.937 112.043 363.37 114.44 365.46C114.76 365.74 115.06 366.04 115.35 366.35C115.65 366.663 115.928 366.997 116.18 367.35C116.696 368.059 117.116 368.832 117.43 369.65C117.803 370.494 117.986 371.41 117.967 372.332C117.948 373.255 117.727 374.162 117.32 374.99C116.831 375.828 116.073 376.476 115.17 376.83C114.268 377.182 113.29 377.299 112.33 377.17C110.374 376.891 108.609 375.848 107.42 374.27C106.239 372.729 105.521 370.884 105.35 368.95C105.216 367.075 105.56 365.196 106.35 363.49C107.855 360.301 110.252 357.616 113.25 355.76C115.892 354.017 118.841 352.792 121.94 352.15C124.629 351.595 127.387 351.447 130.12 351.71C132.374 351.907 134.593 352.398 136.72 353.17C137.591 353.483 138.445 353.84 139.28 354.24C140.04 354.63 140.72 355.02 141.28 355.36L142.82 356.41C143.191 356.678 143.548 356.965 143.89 357.27L144.52 357.81L144.74 358Z" fill="#FAFAFA"/>
<path d="M143.22 315.76L167.72 359.82L140.54 368.17L143.22 315.76Z" fill="#585799"/>
<path d="M146.51 418.93C146.461 418.676 146.435 418.418 146.43 418.16C146.43 417.61 146.36 416.88 146.3 415.96C146.21 413.96 146.09 411.22 145.93 407.82C145.65 400.96 145.3 391.47 144.99 380.99C144.68 370.51 144.49 360.99 144.43 354.13C144.43 350.69 144.43 347.91 144.43 345.99C144.43 345.07 144.43 344.33 144.43 343.78C144.424 343.522 144.441 343.265 144.48 343.01C144.526 343.264 144.546 343.522 144.54 343.78L144.6 345.99C144.6 347.99 144.7 350.73 144.78 354.12C144.96 361.04 145.21 370.51 145.49 380.97C145.77 391.43 146.08 400.89 146.28 407.81C146.36 411.2 146.43 413.97 146.48 415.95C146.48 416.87 146.48 417.61 146.48 418.16C146.516 418.415 146.526 418.673 146.51 418.93Z" fill="#263238"/>
<path d="M150.45 329.18C150.28 329.332 150.092 329.463 149.89 329.57C149.337 329.92 148.763 330.234 148.17 330.51C145.4 331.727 142.37 332.231 139.356 331.978C136.341 331.725 133.438 330.722 130.91 329.06C130.026 328.506 129.221 327.833 128.52 327.06C127.748 326.224 127.234 325.182 127.04 324.06C126.931 323.474 126.954 322.87 127.108 322.294C127.262 321.718 127.543 321.184 127.93 320.73C128.359 320.282 128.898 319.955 129.492 319.779C130.087 319.604 130.717 319.587 131.32 319.73C131.92 319.842 132.491 320.077 132.996 320.422C133.5 320.766 133.927 321.211 134.25 321.73C134.826 322.768 135.014 323.976 134.78 325.14C134.573 326.24 134.095 327.271 133.39 328.14C132.712 328.96 131.88 329.64 130.94 330.14C129.205 331.006 127.322 331.535 125.39 331.7C123.73 331.889 122.054 331.909 120.39 331.76C117.986 331.544 115.627 330.975 113.39 330.07C112.782 329.826 112.188 329.549 111.61 329.24C111.399 329.15 111.2 329.032 111.02 328.89C111.235 328.965 111.445 329.051 111.65 329.15C112.06 329.33 112.65 329.59 113.46 329.88C115.712 330.705 118.068 331.213 120.46 331.39C122.1 331.512 123.748 331.472 125.38 331.27C127.251 331.093 129.072 330.567 130.75 329.72C131.63 329.246 132.41 328.608 133.05 327.84C133.694 327.031 134.131 326.077 134.32 325.06C134.526 324.018 134.356 322.938 133.84 322.01C133.558 321.552 133.182 321.158 132.738 320.855C132.293 320.552 131.79 320.346 131.26 320.25C130.745 320.123 130.207 320.132 129.697 320.275C129.187 320.419 128.723 320.693 128.35 321.07C128.015 321.468 127.773 321.936 127.642 322.439C127.51 322.942 127.492 323.469 127.59 323.98C127.769 324.996 128.234 325.939 128.93 326.7C129.599 327.467 130.369 328.14 131.22 328.7C134.156 330.677 137.62 331.723 141.16 331.7C143.558 331.714 145.936 331.259 148.16 330.36C149.64 329.66 150.42 329.13 150.45 329.18Z" fill="#FAFAFA"/>
<path d="M145.23 418.07L144.95 417.88L144.15 417.3C143.107 416.574 142.014 415.922 140.88 415.35C136.686 413.279 132.055 412.25 127.38 412.35C121.49 412.35 114.52 414.35 107.77 418.23C106.038 419.208 104.416 420.368 102.93 421.69C101.369 423.038 100.073 424.666 99.1097 426.49C98.1297 428.374 97.8093 430.532 98.1997 432.62C98.4342 433.658 98.9699 434.605 99.7397 435.34C100.117 435.698 100.581 435.951 101.086 436.076C101.591 436.2 102.119 436.191 102.62 436.05C103.619 435.707 104.447 434.99 104.93 434.05C105.439 433.108 105.723 432.06 105.76 430.99C105.742 428.845 105.08 426.754 103.86 424.99C102.698 423.283 101.188 421.841 99.4297 420.76C97.7374 419.732 95.88 419.005 93.9397 418.61C90.3074 417.933 86.5848 417.896 82.9397 418.5C79.7501 418.955 76.5983 419.643 73.5097 420.56C69.0366 421.923 64.7169 423.746 60.6197 426C59.1697 426.79 58.0697 427.45 57.3197 427.9L56.4797 428.42L56.1797 428.58C56.1797 428.58 56.2597 428.5 56.4497 428.37L57.2697 427.81C57.9897 427.33 59.0897 426.65 60.5297 425.81C64.6147 423.511 68.9365 421.66 73.4197 420.29C76.5207 419.339 79.69 418.627 82.8997 418.16C86.5873 417.521 90.3592 417.541 94.0397 418.22C96.0374 418.617 97.9498 419.361 99.6897 420.42C101.512 421.53 103.077 423.017 104.28 424.78C105.559 426.615 106.256 428.793 106.28 431.03C106.241 432.185 105.933 433.315 105.38 434.33C104.84 435.407 103.899 436.229 102.76 436.62C102.175 436.786 101.557 436.798 100.967 436.654C100.376 436.51 99.8328 436.216 99.3897 435.8C98.5453 434.987 97.9578 433.944 97.6997 432.8C97.2905 430.589 97.643 428.305 98.6997 426.32C99.6917 424.438 101.028 422.759 102.64 421.37C104.161 420.032 105.816 418.856 107.58 417.86C114.4 413.94 121.46 412.03 127.43 412.03C132.154 411.953 136.824 413.038 141.03 415.19C142.551 415.96 143.963 416.929 145.23 418.07Z" fill="#FAFAFA"/>
<path d="M74.7797 338.2C71.7797 322.83 50.0297 322.26 46.2197 337.45C46.1597 337.68 46.0997 337.92 46.0497 338.16C40.4397 362.09 59.3897 432.8 64.4797 436.88C69.5697 440.96 74.6197 445.58 83.3197 441.97C88.4097 439.86 141.26 393.15 141.26 393.15C141.26 393.15 153.48 404.86 157.56 403.84C161.64 402.82 169.42 390.84 169.42 390.84C169.42 390.84 176.98 402.17 177.93 402.34C178.446 402.424 178.975 402.365 179.459 402.167C179.944 401.97 180.364 401.643 180.674 401.222C180.984 400.801 181.172 400.303 181.218 399.782C181.263 399.261 181.163 398.738 180.93 398.27C179.93 396.74 170.29 375.67 170.29 375.67C170.29 375.67 177.88 374.85 176.35 372.3C176.35 372.3 176.16 369.96 171.03 370.41C165.9 370.86 166 365 156.45 365.56C146.9 366.12 127.18 368.56 99.4497 389.84L86.5997 398.9L74.7797 338.2Z" fill="#FFBE9D"/>
<path d="M99.4198 389.84L99.7398 389.58L100.74 388.85L104.49 386.04C109.255 382.63 114.216 379.505 119.35 376.68C127.201 372.33 135.613 369.08 144.35 367.02C146.87 366.49 149.48 366.02 152.19 365.71C153.55 365.56 154.92 365.44 156.32 365.34C157.746 365.234 159.179 365.298 160.59 365.53C162.044 365.786 163.434 366.326 164.68 367.12C165.95 367.89 167.02 368.96 168.3 369.62C168.919 369.942 169.602 370.123 170.3 370.15C171.01 370.15 171.79 370.06 172.57 370.09C173.364 370.09 174.151 370.225 174.9 370.49C175.315 370.607 175.693 370.832 175.995 371.14C176.296 371.449 176.512 371.832 176.62 372.25V372.15C176.824 372.471 176.895 372.858 176.82 373.23C176.709 373.586 176.489 373.897 176.19 374.12C175.639 374.526 175.024 374.837 174.37 375.04C173.067 375.452 171.728 375.737 170.37 375.89L170.58 375.54L177.36 390.21C178.55 392.71 179.73 395.28 181.02 397.77C181.228 398.079 181.393 398.416 181.51 398.77C181.58 399.153 181.58 399.546 181.51 399.93C181.381 400.711 180.977 401.421 180.37 401.93C180.069 402.184 179.72 402.374 179.343 402.489C178.967 402.605 178.571 402.642 178.18 402.6H177.89C177.817 402.587 177.746 402.564 177.68 402.53L177.54 402.43C177.39 402.303 177.25 402.166 177.12 402.02C176.87 401.75 176.63 401.47 176.41 401.18C173.8 397.84 171.49 394.38 169.19 390.98H169.62C167.811 393.736 165.848 396.387 163.74 398.92C162.707 400.174 161.581 401.347 160.37 402.43C160.06 402.69 159.73 402.93 159.42 403.19C159.078 403.419 158.724 403.629 158.36 403.82C157.984 404.022 157.571 404.144 157.146 404.178C156.721 404.213 156.293 404.159 155.89 404.02C154.374 403.538 152.939 402.833 151.63 401.93C150.32 401.08 149.08 400.17 147.87 399.23C145.47 397.34 143.22 395.37 141.08 393.35H141.4C124.64 408.09 110.29 420.47 100.03 429.05C94.8998 433.34 90.7898 436.67 87.9098 438.87C86.4698 439.97 85.3398 440.79 84.5498 441.3C84.1593 441.574 83.7402 441.806 83.2998 441.99C83.2998 441.99 83.7398 441.77 84.5098 441.23C85.2798 440.69 86.3998 439.87 87.8198 438.75C90.6598 436.52 94.7398 433.15 99.8198 428.83C110.03 420.19 124.34 407.76 141.07 392.99L141.23 392.85L141.39 393C143.51 395 145.77 397 148.16 398.83C149.35 399.76 150.59 400.67 151.88 401.5C153.144 402.365 154.529 403.039 155.99 403.5C157.49 404.06 158.83 403 159.99 402.01C161.176 400.942 162.282 399.789 163.3 398.56C165.393 396.041 167.342 393.407 169.14 390.67L169.35 390.34L169.57 390.66C171.86 394.05 174.19 397.52 176.76 400.83C176.986 401.11 177.216 401.38 177.45 401.64C177.57 401.76 177.69 401.89 177.81 401.99L177.89 402.05C177.89 402.05 177.89 402.05 177.89 402.14C177.89 402.23 177.89 402.3 177.89 402.06H178.13C178.455 402.098 178.784 402.068 179.097 401.974C179.41 401.879 179.7 401.721 179.95 401.51C180.47 401.102 180.813 400.51 180.906 399.855C180.999 399.201 180.836 398.536 180.45 398C179.12 395.45 177.96 392.91 176.77 390.4L170 375.71L169.86 375.4H170.2C171.52 375.249 172.823 374.971 174.09 374.57C174.689 374.393 175.253 374.115 175.76 373.75C175.974 373.592 176.135 373.372 176.22 373.12C176.263 372.874 176.213 372.621 176.08 372.41V372.34C175.975 372.016 175.791 371.723 175.545 371.487C175.299 371.252 174.998 371.081 174.67 370.99C173.975 370.748 173.245 370.627 172.51 370.63C171.76 370.63 171.04 370.7 170.24 370.69C169.451 370.659 168.68 370.454 167.98 370.09C166.6 369.38 165.55 368.31 164.33 367.56C163.134 366.802 161.803 366.283 160.41 366.03C157.64 365.53 154.83 365.96 152.14 366.2C149.45 366.44 146.85 366.96 144.34 367.48C135.613 369.503 127.202 372.706 119.34 377C114.204 379.796 109.226 382.874 104.43 386.22L100.65 388.97L99.6498 389.67L99.4198 389.84Z" fill="#EB996E"/>
<path d="M81.8496 416.1C81.8496 416.1 81.7396 415.84 81.6396 415.36C81.5022 414.671 81.4186 413.972 81.3896 413.27C81.1303 408.593 82.4202 403.96 85.0596 400.09C85.4546 399.508 85.8889 398.953 86.3596 398.43C86.6996 398.07 86.8996 397.88 86.9196 397.9C86.9396 397.92 86.2896 398.8 85.3696 400.29C82.9522 404.191 81.6965 408.701 81.7496 413.29C81.7696 415 81.9396 416.09 81.8496 416.1Z" fill="#EB996E"/>
<path d="M59.9999 311.61C59.5099 311.94 41.9099 317.2 39.1399 335.24C36.3699 353.28 37.9999 384.7 37.9999 384.7L85.7399 381.42L72.0499 318L59.9999 311.61Z" fill="#585799"/>
<path d="M161.44 401.35C161.36 401.35 161.49 400.7 161.44 399.71C161.39 398.414 161.048 397.146 160.44 396C159.829 394.853 158.972 393.856 157.93 393.08C157.13 392.5 156.54 392.26 156.57 392.17C157.137 392.237 157.677 392.447 158.14 392.78C159.31 393.517 160.263 394.553 160.9 395.78C161.555 397.007 161.863 398.39 161.79 399.78C161.802 400.324 161.682 400.863 161.44 401.35Z" fill="#EB996E"/>
<path d="M165.83 396C165.602 394.454 165.049 392.974 164.208 391.658C163.367 390.341 162.256 389.217 160.95 388.36C161.422 388.441 161.866 388.641 162.24 388.94C163.203 389.575 164.02 390.407 164.64 391.38C165.268 392.351 165.68 393.446 165.85 394.59C165.966 395.054 165.959 395.54 165.83 396Z" fill="#EB996E"/>
<path d="M165.83 384.6C165.83 384.55 166.28 384.75 166.83 385.24C167.539 385.892 168.105 386.683 168.494 387.564C168.883 388.445 169.086 389.397 169.09 390.36C169.09 391.09 168.96 391.53 168.9 391.52C168.756 390.239 168.457 388.98 168.01 387.77C167.409 386.632 166.678 385.568 165.83 384.6Z" fill="#EB996E"/>
<path d="M79.9198 351.47C79.8372 351.486 79.7524 351.486 79.6698 351.47L78.9498 351.39C78.0273 351.276 77.0993 351.212 76.1698 351.2C72.7483 351.165 69.3523 351.793 66.1698 353.05C61.4393 354.896 57.3732 358.123 54.4998 362.31C52.7902 364.729 51.9129 367.639 51.9998 370.6C52.0676 372.156 52.5286 373.67 53.3398 375C54.1879 376.348 55.4838 377.353 56.9998 377.84C58.5072 378.341 60.1472 378.262 61.5998 377.62C62.2836 377.293 62.8881 376.821 63.3716 376.238C63.855 375.654 64.2059 374.973 64.3998 374.24C64.7311 372.78 64.669 371.258 64.2198 369.83C63.8116 368.447 63.1689 367.145 62.3198 365.98C60.8104 363.959 58.9152 362.257 56.7439 360.973C54.5726 359.689 52.1682 358.849 49.6698 358.5C46.2767 358.055 42.8263 358.518 39.6698 359.84C38.8147 360.205 37.9831 360.622 37.1798 361.09L36.5598 361.47L36.3398 361.58C37.3334 360.799 38.4263 360.153 39.5898 359.66C42.7615 358.24 46.261 357.715 49.7098 358.14C52.2711 358.466 54.7411 359.303 56.9739 360.599C59.2067 361.896 61.157 363.627 62.7098 365.69C63.6054 366.896 64.2823 368.25 64.7098 369.69C65.1889 371.205 65.2545 372.821 64.8998 374.37C64.6893 375.176 64.3055 375.926 63.7753 376.569C63.2451 377.211 62.5812 377.73 61.8298 378.09C60.251 378.787 58.4703 378.876 56.8298 378.34C55.2037 377.796 53.8199 376.699 52.9198 375.24C52.0502 373.852 51.5478 372.266 51.4598 370.63C51.3903 367.549 52.3278 364.53 54.1298 362.03C57.0716 357.781 61.2358 354.527 66.0698 352.7C69.2924 351.463 72.7301 350.885 76.1798 351C77.439 351.032 78.6918 351.19 79.9198 351.47Z" fill="#FAFAFA"/>
<path d="M78.2897 325.57C77.9073 325.799 77.5017 325.987 77.0797 326.13C76.5995 326.341 76.1049 326.518 75.5997 326.66C74.9453 326.888 74.2773 327.075 73.5997 327.22C72.7862 327.424 71.9614 327.581 71.1297 327.69C70.2297 327.84 69.2697 327.89 68.2497 327.96C66.0403 328.03 63.8293 327.879 61.6497 327.51C59.4781 327.1 57.3538 326.47 55.3097 325.63C54.3797 325.21 53.4897 324.83 52.7097 324.38C51.9655 323.988 51.2443 323.554 50.5497 323.08C49.9679 322.704 49.4071 322.297 48.8697 321.86C48.4508 321.554 48.0532 321.22 47.6797 320.86C47.3345 320.58 47.0195 320.265 46.7397 319.92C46.8097 319.83 48.1797 321.16 50.7397 322.78C51.4429 323.227 52.1708 323.635 52.9197 324C53.7591 324.443 54.6202 324.843 55.4997 325.2C59.5407 326.842 63.88 327.622 68.2397 327.49C69.2397 327.43 70.2397 327.4 71.0797 327.27C71.9197 327.14 72.7797 327.02 73.5297 326.87C76.4997 326.24 78.2497 325.47 78.2897 325.57Z" fill="#FAFAFA"/>
<path d="M82.23 356.16C82.2812 356.316 82.318 356.477 82.34 356.64C82.4 357 82.48 357.46 82.57 358.03C82.77 359.31 83.04 361.03 83.37 363.26C84.02 367.79 84.93 374.08 85.98 381.38V381.65H85.72L74.56 382.43L48.68 384.13L40.84 384.59L38.7 384.69H38C38.2415 384.624 38.4899 384.588 38.74 384.58L40.86 384.39L48.7 383.77L74.57 381.91L85.72 381.16L85.49 381.44C84.49 374.13 83.67 367.83 83.07 363.3C82.79 361.1 82.57 359.3 82.41 358.05C82.34 357.47 82.29 357.05 82.25 356.64C82.2202 356.482 82.2135 356.32 82.23 356.16Z" fill="#263238"/>
<g opacity="0.2">
<path d="M59.08 311.11C58.6 312.8 59.94 314.38 60.81 315.9C62.49 318.82 62.58 322.35 62.73 325.72C62.842 331.913 63.794 338.063 65.56 344C67.48 349.86 70.78 355.41 75.66 359.19C80.54 362.97 87.09 364.82 93.06 363.27C99.03 361.72 104.06 356.42 104.57 350.27C105.08 344.12 101.37 338.64 99.25 332.9C97.61 328.48 96.88 323.78 95.94 319.15C95 314.52 93.8 309.87 91.35 305.84C88.9 301.81 85.01 298.44 80.35 297.59C75.69 296.74 70.41 298.94 68.53 303.26" fill="black"/>
</g>
<path d="M82.14 230.37V235.68L81.79 315.29C81.79 324.53 89.67 331.93 99.56 331.9C109.56 331.9 117.81 324.28 118 314.9C118.21 305.1 118.6 294.79 118.6 294.79C118.6 294.79 131.26 292.92 134.17 276.49C135.62 268.33 135.44 254.89 134.95 243.9C134.846 241.555 134.268 239.255 133.251 237.14C132.234 235.024 130.799 233.136 129.034 231.59C127.268 230.043 125.207 228.871 122.975 228.142C120.744 227.413 118.388 227.144 116.05 227.35L82.14 230.37Z" fill="#FFBE9D"/>
<path d="M131.09 254C131.085 254.552 130.864 255.08 130.476 255.472C130.088 255.864 129.561 256.09 129.01 256.1C128.74 256.119 128.469 256.083 128.213 255.994C127.957 255.905 127.722 255.766 127.522 255.583C127.322 255.401 127.161 255.18 127.049 254.934C126.937 254.687 126.876 254.421 126.87 254.15C126.875 253.601 127.094 253.075 127.48 252.685C127.867 252.295 128.39 252.07 128.94 252.06C129.21 252.04 129.481 252.074 129.737 252.162C129.993 252.249 130.229 252.388 130.43 252.569C130.631 252.751 130.793 252.971 130.907 253.217C131.02 253.463 131.082 253.729 131.09 254Z" fill="#263238"/>
<path d="M131.92 250.88C131.65 251.15 130.08 249.93 127.8 249.88C125.52 249.83 123.8 250.95 123.6 250.67C123.48 250.54 123.76 250.05 124.49 249.54C125.483 248.865 126.66 248.516 127.86 248.54C129.041 248.561 130.185 248.952 131.13 249.66C131.82 250.25 132.05 250.75 131.92 250.88Z" fill="#263238"/>
<path d="M109.56 253.58C109.555 254.131 109.334 254.658 108.946 255.049C108.557 255.439 108.031 255.662 107.48 255.67C107.211 255.689 106.94 255.653 106.685 255.565C106.43 255.477 106.196 255.338 105.996 255.157C105.796 254.975 105.635 254.756 105.522 254.51C105.409 254.265 105.347 254 105.34 253.73C105.345 253.18 105.564 252.653 105.95 252.261C106.336 251.869 106.86 251.643 107.41 251.63C107.681 251.61 107.953 251.644 108.21 251.733C108.467 251.821 108.703 251.96 108.904 252.143C109.105 252.325 109.267 252.547 109.38 252.794C109.493 253.041 109.554 253.308 109.56 253.58Z" fill="#263238"/>
<path d="M109.57 250.9C109.3 251.17 107.72 249.96 105.45 249.9C103.18 249.84 101.45 250.97 101.25 250.69C101.13 250.56 101.41 250.07 102.14 249.55C103.135 248.88 104.311 248.531 105.51 248.55C106.695 248.563 107.845 248.955 108.79 249.67C109.47 250.28 109.7 250.78 109.57 250.9Z" fill="#263238"/>
<path d="M117.52 267.91C118.723 267.554 119.966 267.349 121.22 267.3C121.81 267.3 122.36 267.15 122.46 266.76C122.52 266.161 122.398 265.558 122.11 265.03C121.58 263.61 121.04 262.13 120.47 260.58C118.2 254.24 116.56 249.04 116.82 248.95C117.08 248.86 119.12 253.95 121.39 260.26L122.96 264.73C123.312 265.439 123.404 266.25 123.22 267.02C123.128 267.226 122.99 267.408 122.817 267.551C122.643 267.695 122.439 267.797 122.22 267.85C121.892 267.925 121.557 267.966 121.22 267.97C119.989 268.096 118.747 268.076 117.52 267.91Z" fill="#263238"/>
<path d="M118.61 294.83C110.836 294.821 103.218 292.646 96.6099 288.55C96.6099 288.55 101.76 299.96 118.27 298.71L118.61 294.83Z" fill="#EB996E"/>
<path d="M116.46 273.37C116.039 272.817 115.483 272.38 114.846 272.102C114.209 271.824 113.512 271.713 112.82 271.78C112.317 271.816 111.827 271.954 111.378 272.184C110.93 272.414 110.532 272.733 110.21 273.12C109.9 273.493 109.712 273.951 109.671 274.434C109.63 274.917 109.737 275.4 109.98 275.82C110.339 276.243 110.818 276.547 111.354 276.691C111.889 276.836 112.456 276.815 112.98 276.63C114.06 276.267 115.058 275.696 115.92 274.95C116.178 274.772 116.401 274.548 116.58 274.29C116.661 274.163 116.704 274.016 116.704 273.865C116.704 273.714 116.661 273.567 116.58 273.44" fill="#EB996E"/>
<path d="M110.8 269.36C111.17 269.36 111.13 271.81 113.22 273.6C115.31 275.39 117.93 275.16 117.94 275.51C117.94 275.66 117.35 275.98 116.24 275.99C114.792 275.987 113.392 275.469 112.29 274.53C111.229 273.636 110.561 272.361 110.43 270.98C110.35 270 110.64 269.34 110.8 269.36Z" fill="#263238"/>
<path d="M110.32 242C110.08 242.61 107.82 242.28 105.15 242.55C102.48 242.82 100.3 243.55 99.9597 242.95C99.8097 242.68 100.19 242.11 101.07 241.53C102.235 240.799 103.559 240.36 104.93 240.25C106.288 240.119 107.658 240.307 108.93 240.8C109.93 241.22 110.42 241.71 110.32 242Z" fill="#263238"/>
<path d="M131.2 244.28C130.79 244.79 129.2 244.23 127.35 244.17C125.5 244.11 123.87 244.45 123.51 243.91C123.36 243.64 123.62 243.13 124.32 242.65C125.267 242.079 126.363 241.804 127.467 241.859C128.571 241.914 129.634 242.298 130.52 242.96C131.17 243.5 131.38 244 131.2 244.28Z" fill="#263238"/>
<path d="M102.79 225C107.25 230.81 102.79 239.13 97.7298 244.47C92.6698 249.81 86.5998 255.99 88.0498 263.16C89.7398 271.48 101.19 276.71 99.5798 285.04C98.9898 288.04 96.5798 290.69 96.6398 293.79C96.6398 299.38 103.94 302.03 106.07 307.19C108.99 314.28 101.22 321.45 101.17 329.11C101.17 333.46 103.65 337.49 103.83 341.84C104.18 350.75 93.7098 357.37 85.0498 355.27C76.3898 353.17 70.3798 344.73 68.4198 336C66.4598 327.27 67.7498 318.24 69.0598 309.43C68.2298 313.19 62.5298 313.95 59.7198 311.32C56.9098 308.69 56.5298 304.32 57.1198 300.53C58.5998 290.98 64.7798 282.85 67.6698 273.64C70.1998 265.58 70.1298 256.98 71.1898 248.64C72.2498 240.3 74.7498 231.52 81.0898 225.94C87.4298 220.36 98.4698 219.57 103.7 226.2" fill="#263238"/>
<path d="M80.2098 352C80.274 351.886 80.3441 351.776 80.4198 351.67C80.5698 351.44 80.7798 351.12 81.0498 350.73C83.0509 347.554 84.1693 343.902 84.2898 340.15C84.4122 337.123 83.8588 334.107 82.6698 331.32C81.3598 328.22 79.0498 325.32 76.6098 322.16C75.3216 320.547 74.1423 318.85 73.0798 317.08C71.9739 315.194 71.1835 313.141 70.7398 311C70.2525 308.698 70.4471 306.303 71.2998 304.11C71.7748 302.995 72.453 301.977 73.2998 301.11C74.1782 300.261 75.1247 299.485 76.1298 298.79C78.1298 297.37 80.1298 295.94 81.2598 293.72C82.2677 291.42 82.4307 288.838 81.7198 286.43C80.5198 281.43 77.0398 277.53 74.8098 273.18C73.6253 271.055 72.9188 268.696 72.7398 266.27C72.6386 263.934 73.0802 261.607 74.0298 259.47C75.8606 255.616 78.5046 252.205 81.7798 249.47C84.7798 246.8 87.6798 244.53 90.0898 242.17C92.3164 240.114 94.1704 237.688 95.5698 235C96.6189 232.964 97.2576 230.742 97.4498 228.46C97.5628 227.019 97.4172 225.57 97.0198 224.18C96.7398 223.18 96.4998 222.76 96.5398 222.74C96.7782 223.19 96.9724 223.662 97.1198 224.15C97.5663 225.544 97.7461 227.009 97.6498 228.47C97.5018 230.787 96.8825 233.05 95.8298 235.12C94.4408 237.856 92.5865 240.329 90.3498 242.43C87.9398 244.83 85.0098 247.12 82.0698 249.79C78.8553 252.514 76.2635 255.897 74.4698 259.71C73.5592 261.78 73.1351 264.031 73.2298 266.29C73.4077 268.641 74.0899 270.926 75.2298 272.99C76.3498 275.13 77.7398 277.18 79.0598 279.33C80.4661 281.485 81.5257 283.847 82.1998 286.33C82.94 288.859 82.7629 291.569 81.6998 293.98C80.5298 296.35 78.3398 297.83 76.3998 299.23C75.4167 299.907 74.4903 300.663 73.6298 301.49C72.8171 302.308 72.1597 303.267 71.6898 304.32C70.876 306.425 70.6885 308.721 71.1498 310.93C71.5769 313.038 72.34 315.064 73.4098 316.93C74.4631 318.671 75.6289 320.341 76.8998 321.93C79.3098 325.07 81.6298 328.04 82.9498 331.21C84.1445 334.053 84.6812 337.13 84.5198 340.21C84.3699 343.999 83.1797 347.673 81.0798 350.83C80.7898 351.24 80.5498 351.53 80.3998 351.74C80.3436 351.832 80.28 351.919 80.2098 352Z" fill="#455A64"/>
<path d="M202.84 370.9L164.94 437.08L111.27 438.94V444.84H268.06L310.73 374.94C311.078 374.337 311.263 373.654 311.266 372.958C311.27 372.262 311.091 371.578 310.749 370.972C310.407 370.366 309.912 369.86 309.314 369.503C308.716 369.147 308.036 368.953 307.34 368.94H206.28C205.586 368.94 204.904 369.121 204.301 369.464C203.697 369.808 203.194 370.303 202.84 370.9Z" fill="#263238"/>
<path d="M250.31 406.23C247.93 409.93 244.31 411.82 242.13 410.44C239.95 409.06 240.18 404.95 242.56 401.25C244.94 397.55 248.56 395.66 250.74 397.04C252.92 398.42 252.69 402.53 250.31 406.23Z" fill="#E0E0E0"/>
<path d="M439.4 415C439.343 414.824 439.269 414.653 439.18 414.49L438.49 413.01C437.662 411.098 436.993 409.122 436.49 407.1C435.15 401.84 434.68 393.8 436.67 384.26C437.743 379.06 439.156 373.935 440.9 368.92C442.7 363.47 444.78 357.69 446.48 351.45C448.402 344.933 449.329 338.164 449.23 331.37C448.98 324.27 446.87 317.18 444.56 310.12C442.25 303.06 439.87 296.12 439.15 289.19C438.359 282.499 439.706 275.728 443 269.85C446.06 264.21 449.91 259.39 452.79 254.39C455.484 249.758 457.469 244.749 458.68 239.53C460.416 231.974 460.542 224.138 459.05 216.53C458.524 213.743 457.72 211.016 456.65 208.39C456.683 208.573 456.73 208.754 456.79 208.93C456.91 209.32 457.07 209.84 457.28 210.49C457.882 212.493 458.379 214.526 458.77 216.58C460.147 224.157 459.942 231.936 458.17 239.43C456.938 244.584 454.95 249.528 452.27 254.1C449.39 259.04 445.52 263.84 442.4 269.55C439.017 275.536 437.617 282.439 438.4 289.27C439.12 296.34 441.52 303.27 443.82 310.36C446.12 317.45 448.21 324.42 448.48 331.41C448.578 338.13 447.672 344.828 445.79 351.28C444.12 357.5 442.06 363.28 440.29 368.74C438.562 373.786 437.169 378.941 436.12 384.17C434.18 393.78 434.73 401.9 436.18 407.17C436.721 409.2 437.451 411.176 438.36 413.07L439.12 414.52C439.194 414.691 439.288 414.852 439.4 415Z" fill="#263238"/>
<path d="M448.83 259.32C448.83 259.32 454.68 240.61 444.18 229.65C444.1 229.56 443.996 229.494 443.88 229.46C443.764 229.426 443.64 229.426 443.524 229.46C443.408 229.493 443.304 229.559 443.224 229.649C443.143 229.74 443.09 229.851 443.07 229.97C442.51 233.06 441.81 242.47 448.83 259.32Z" fill="#9290FE"/>
<path d="M445.32 235.88C445.336 237.044 445.47 238.203 445.72 239.34C446.1 241.71 446.55 244.51 447.05 247.59C447.55 250.67 447.98 253.47 448.36 255.85C448.459 257.004 448.667 258.145 448.98 259.26C449.092 258.1 449.058 256.931 448.88 255.78C448.68 253.64 448.31 250.7 447.77 247.47C447.23 244.24 446.68 241.34 446.23 239.24C446.053 238.09 445.747 236.963 445.32 235.88Z" fill="#263238"/>
<path d="M442 303.46C442 303.46 438.42 284.18 424 279.46C423.887 279.418 423.765 279.409 423.647 279.434C423.529 279.459 423.421 279.516 423.334 279.599C423.247 279.683 423.186 279.789 423.157 279.906C423.128 280.023 423.133 280.146 423.17 280.26C424.09 283.2 427.87 291.85 442 303.46Z" fill="#9290FE"/>
<path d="M427.89 284.39C428.461 285.407 429.131 286.365 429.89 287.25C431.34 289.18 433.04 291.43 434.89 293.92L439.89 300.61C440.522 301.583 441.242 302.497 442.04 303.34C441.59 302.274 441.012 301.267 440.32 300.34C439.15 298.54 437.44 296.12 435.46 293.51C433.48 290.9 431.63 288.6 430.24 286.96C429.561 286.013 428.772 285.151 427.89 284.39Z" fill="#263238"/>
<path d="M445.85 351.83C445.85 351.83 448.02 332.34 435.62 323.59C435.524 323.528 435.413 323.493 435.299 323.488C435.185 323.483 435.071 323.508 434.97 323.561C434.868 323.613 434.783 323.692 434.721 323.788C434.66 323.885 434.625 323.996 434.62 324.11C434.63 327.26 435.74 336.63 445.85 351.83Z" fill="#9290FE"/>
<path d="M437.93 329.49C438.173 330.627 438.532 331.736 439 332.8C439.83 335.07 440.8 337.72 441.88 340.65C442.96 343.58 443.88 346.24 444.74 348.51C445.063 349.622 445.484 350.703 446 351.74C445.889 350.583 445.633 349.444 445.24 348.35C444.64 346.28 443.71 343.47 442.57 340.35C441.43 337.23 440.33 334.53 439.48 332.56C439.08 331.482 438.56 330.452 437.93 329.49Z" fill="#263238"/>
<path d="M435 400.48C435 400.48 436.48 380.92 423.78 372.62C423.681 372.557 423.567 372.521 423.449 372.518C423.332 372.515 423.215 372.543 423.113 372.601C423.01 372.658 422.925 372.742 422.866 372.844C422.808 372.946 422.778 373.062 422.78 373.18C422.91 376.32 424.35 385.65 435 400.48Z" fill="#9290FE"/>
<path d="M426.29 378.44C426.558 379.569 426.947 380.665 427.45 381.71L430.61 389.45C431.79 392.35 432.85 394.97 433.75 397.2C434.114 398.303 434.575 399.37 435.13 400.39C434.97 399.235 434.671 398.103 434.24 397.02C433.57 395.02 432.54 392.2 431.29 389.17C430.04 386.14 428.84 383.44 427.93 381.51C427.497 380.43 426.947 379.4 426.29 378.44Z" fill="#263238"/>
<path d="M457.24 242.88C457.24 242.88 474.62 233.8 474.96 218.63C474.962 218.512 474.933 218.396 474.874 218.294C474.816 218.192 474.731 218.108 474.628 218.051C474.525 217.993 474.409 217.964 474.291 217.968C474.174 217.971 474.059 218.007 473.96 218.07C471.36 219.85 464.21 226 457.24 242.88Z" fill="#9290FE"/>
<path d="M471.35 223.84C470.538 224.67 469.814 225.581 469.19 226.56C467.77 228.51 466.12 230.8 464.29 233.33C462.46 235.86 460.79 238.15 459.37 240.09C458.618 240.977 457.948 241.931 457.37 242.94C458.269 242.2 459.072 241.35 459.76 240.41C461.13 238.76 462.95 236.41 464.86 233.76C466.77 231.11 468.43 228.66 469.59 226.85C470.291 225.918 470.882 224.908 471.35 223.84Z" fill="#263238"/>
<path d="M438.57 283.07C438.57 283.07 456.47 275.07 457.74 259.94C457.755 259.817 457.734 259.693 457.68 259.582C457.626 259.471 457.542 259.378 457.437 259.313C457.332 259.247 457.211 259.214 457.088 259.215C456.964 259.216 456.844 259.253 456.74 259.32C454.07 261 446.55 266.66 438.57 283.07Z" fill="#9290FE"/>
<path d="M453.82 264.93C452.954 265.704 452.173 266.569 451.49 267.51L446.19 273.97L440.87 280.42C440.069 281.26 439.349 282.174 438.72 283.15C439.657 282.455 440.509 281.653 441.26 280.76C442.73 279.2 444.69 276.97 446.76 274.44C448.83 271.91 450.63 269.56 451.9 267.83C452.646 266.938 453.29 265.965 453.82 264.93Z" fill="#263238"/>
<path d="M448.87 327.9C448.87 327.9 461.16 312.62 455.4 298.59C455.356 298.479 455.282 298.383 455.186 298.311C455.091 298.24 454.977 298.196 454.859 298.185C454.74 298.173 454.62 298.195 454.513 298.247C454.406 298.299 454.315 298.38 454.25 298.48C452.6 301.15 448.5 309.66 448.87 327.9Z" fill="#9290FE"/>
<path d="M454.18 304.81C453.771 305.898 453.47 307.023 453.28 308.17C452.77 310.52 452.17 313.28 451.51 316.34C450.85 319.4 450.23 322.15 449.71 324.5C449.386 325.611 449.162 326.749 449.04 327.9C449.562 326.862 449.955 325.764 450.21 324.63C450.81 322.57 451.54 319.69 452.21 316.49C452.88 313.29 453.43 310.38 453.77 308.26C454.034 307.129 454.171 305.972 454.18 304.81Z" fill="#263238"/>
<path d="M436.7 380.66C436.7 380.66 454.46 372.36 455.47 357.22C455.482 357.098 455.46 356.976 455.405 356.866C455.351 356.756 455.266 356.665 455.162 356.601C455.057 356.537 454.937 356.504 454.815 356.506C454.692 356.507 454.573 356.544 454.47 356.61C451.82 358.28 444.4 364.12 436.7 380.66Z" fill="#9290FE"/>
<path d="M451.64 362.26C450.792 363.055 450.025 363.933 449.35 364.88L444.16 371.44L439 378C438.216 378.856 437.513 379.783 436.9 380.77C437.824 380.061 438.66 379.246 439.39 378.34C440.84 376.76 442.76 374.49 444.79 371.92C446.82 369.35 448.58 366.98 449.79 365.23C450.513 364.31 451.133 363.314 451.64 362.26Z" fill="#263238"/>
<path d="M401.32 303.57C401.32 303.57 401.32 303.71 401.32 304C401.32 304.29 401.32 304.75 401.32 305.25C401.37 306.43 401.44 308.02 401.53 310.01C401.75 314.19 402.07 320.01 402.46 327.01C403.73 334.1 407.34 342.01 412.2 349.6C415.76 355.23 419.49 360.34 422.71 365.1C425.635 369.246 428.268 373.589 430.59 378.1C432.117 381.164 433.353 384.365 434.28 387.66C434.59 388.83 434.82 389.74 434.96 390.37C435.016 390.691 435.103 391.006 435.22 391.31C435.209 390.974 435.169 390.639 435.1 390.31C435.02 389.67 434.83 388.74 434.55 387.55C433.719 384.203 432.55 380.95 431.06 377.84C428.792 373.261 426.188 368.856 423.27 364.66C420.07 359.87 416.36 354.75 412.82 349.15C407.99 341.55 404.39 333.81 403.08 326.83C402.59 319.83 402.19 314.04 401.89 309.83C401.73 307.83 401.6 306.27 401.51 305.09C401.51 304.59 401.42 304.18 401.38 303.84C401.367 303.749 401.347 303.658 401.32 303.57Z" fill="#263238"/>
<path d="M411.89 348.16C411.89 348.16 404.37 330.06 413.83 318.16C413.904 318.065 414.002 317.992 414.115 317.949C414.227 317.907 414.35 317.896 414.468 317.919C414.586 317.942 414.696 317.997 414.784 318.078C414.873 318.16 414.937 318.264 414.97 318.38C415.81 321.44 417.36 330.75 411.89 348.16Z" fill="#9290FE"/>
<path d="M413.26 324.5C412.936 325.618 412.738 326.768 412.67 327.93C412.4 330.06 412.1 333.01 411.87 336.27C411.64 339.53 411.53 342.5 411.53 344.64C411.455 345.804 411.525 346.973 411.74 348.12C411.943 346.978 412.044 345.82 412.04 344.66C412.2 342.26 412.39 339.44 412.6 336.32C412.81 333.2 413.02 330.38 413.18 327.98C413.328 326.826 413.354 325.66 413.26 324.5Z" fill="#263238"/>
<g opacity="0.3">
<path d="M411.89 348.16C411.89 348.16 404.37 330.06 413.83 318.16C413.904 318.065 414.002 317.992 414.115 317.949C414.227 317.907 414.35 317.896 414.468 317.919C414.586 317.942 414.696 317.997 414.784 318.078C414.873 318.16 414.937 318.264 414.97 318.38C415.81 321.44 417.36 330.75 411.89 348.16Z" fill="black"/>
</g>
<path d="M435.2 391.8C435.2 391.8 429.2 373.14 439.56 362.09C439.641 362 439.745 361.935 439.861 361.902C439.977 361.868 440.1 361.867 440.216 361.899C440.332 361.931 440.437 361.995 440.519 362.084C440.601 362.172 440.657 362.282 440.68 362.4C441.27 365.48 442.05 374.89 435.2 391.8Z" fill="#9290FE"/>
<path d="M438.48 368.33C438.062 369.416 437.77 370.547 437.61 371.7C437.17 373.8 436.61 376.7 436.14 379.94C435.67 383.18 435.29 386.12 435.14 388.26C434.979 389.413 434.955 390.581 435.07 391.74C435.376 390.621 435.573 389.476 435.66 388.32C436.01 385.94 436.43 383.14 436.89 380.06C437.35 376.98 437.79 374.17 438.15 371.79C438.373 370.65 438.484 369.491 438.48 368.33Z" fill="#263238"/>
<g opacity="0.3">
<path d="M435.2 391.8C435.2 391.8 429.2 373.14 439.56 362.09C439.641 362 439.745 361.935 439.861 361.902C439.977 361.868 440.1 361.867 440.216 361.899C440.332 361.931 440.437 361.995 440.519 362.084C440.601 362.172 440.657 362.282 440.68 362.4C441.27 365.48 442.05 374.89 435.2 391.8Z" fill="black"/>
</g>
<path d="M402.31 326C402.31 326 386.25 314.76 387.87 299.67C387.88 299.55 387.924 299.435 387.996 299.338C388.068 299.241 388.165 299.166 388.277 299.121C388.389 299.077 388.512 299.064 388.631 299.085C388.749 299.106 388.86 299.16 388.95 299.24C391.28 301.38 397.58 308.41 402.31 326Z" fill="#9290FE"/>
<g opacity="0.3">
<path d="M402.31 326C402.31 326 386.25 314.76 387.87 299.67C387.88 299.55 387.924 299.435 387.996 299.338C388.068 299.241 388.165 299.166 388.277 299.121C388.389 299.077 388.512 299.064 388.631 299.085C388.749 299.106 388.86 299.16 388.95 299.24C391.28 301.38 397.58 308.41 402.31 326Z" fill="black"/>
</g>
<path d="M390.78 305.33C391.098 306.448 391.544 307.525 392.11 308.54C393.03 310.48 394.36 313.13 395.91 316.01C397.46 318.89 398.91 321.45 400.11 323.26C400.678 324.279 401.367 325.225 402.16 326.08C401.723 325.006 401.187 323.975 400.56 323L396.56 315.66L392.56 308.31C392.068 307.26 391.471 306.262 390.78 305.33Z" fill="#263238"/>
<path d="M428.72 373.3C428.72 373.3 409.34 370.3 404.15 356.02C404.109 355.908 404.1 355.787 404.123 355.671C404.147 355.554 404.201 355.446 404.282 355.358C404.362 355.27 404.465 355.207 404.58 355.173C404.694 355.14 404.815 355.139 404.93 355.17C408 356 416.71 359.56 428.72 373.3Z" fill="#9290FE"/>
<g opacity="0.3">
<path d="M428.72 373.3C428.72 373.3 409.34 370.3 404.15 356.02C404.109 355.908 404.1 355.787 404.123 355.671C404.147 355.554 404.201 355.446 404.282 355.358C404.362 355.27 404.465 355.207 404.58 355.173C404.694 355.14 404.815 355.139 404.93 355.17C408 356 416.71 359.56 428.72 373.3Z" fill="black"/>
</g>
<path d="M409.24 359.8C410.026 360.658 410.905 361.426 411.86 362.09C413.53 363.43 415.86 365.22 418.56 367.09C421.26 368.96 423.69 370.63 425.56 371.75C426.514 372.422 427.549 372.969 428.64 373.38C427.772 372.613 426.839 371.924 425.85 371.32L419 366.53L412.19 361.68C411.273 360.955 410.285 360.325 409.24 359.8Z" fill="#263238"/>
<path d="M451.64 408.96L446.09 445.41L423.89 445.37L416.42 408.96H451.64Z" fill="#455A64"/>
<path d="M419.67 423C419.67 423 419.72 423.06 419.85 423.14C419.98 423.22 420.17 423.34 420.44 423.47C421.221 423.851 422.059 424.101 422.92 424.21C424.292 424.395 425.687 424.265 427 423.83C428.77 423.27 430.311 422.15 431.39 420.64C431.986 419.729 432.331 418.677 432.39 417.59C432.451 416.98 432.343 416.365 432.076 415.812C431.81 415.26 431.396 414.792 430.88 414.46C430.292 414.167 429.634 414.041 428.979 414.094C428.323 414.146 427.695 414.377 427.16 414.76C426.056 415.569 425.299 416.766 425.04 418.11C424.746 419.462 424.652 420.85 424.76 422.23C424.835 423.672 425.139 425.093 425.66 426.44C426.206 427.854 427.088 429.114 428.23 430.11C429.416 431.161 430.919 431.788 432.5 431.89C434.081 431.924 435.634 431.474 436.95 430.6C438.214 429.793 439.333 428.779 440.26 427.6C441.213 426.468 441.799 425.073 441.94 423.6C441.997 422.878 441.883 422.153 441.609 421.482C441.334 420.812 440.907 420.215 440.36 419.74C439.799 419.324 439.129 419.08 438.431 419.037C437.733 418.994 437.038 419.155 436.43 419.5C435.846 419.791 435.337 420.213 434.944 420.734C434.55 421.254 434.282 421.859 434.16 422.5C433.994 423.633 434.173 424.79 434.674 425.819C435.176 426.848 435.976 427.703 436.97 428.27C438.608 429.158 440.508 429.434 442.33 429.05C443.676 428.769 444.964 428.262 446.14 427.55C446.883 427.115 447.598 426.634 448.28 426.11C448.532 425.94 448.764 425.742 448.97 425.52C448.706 425.666 448.453 425.83 448.21 426.01C447.72 426.33 447 426.82 446.03 427.35C444.86 428.006 443.59 428.466 442.27 428.71C440.535 429.048 438.735 428.761 437.19 427.9C436.289 427.368 435.568 426.58 435.117 425.636C434.666 424.692 434.507 423.635 434.66 422.6C434.771 422.043 435.009 421.519 435.356 421.07C435.703 420.62 436.149 420.258 436.66 420.01C437.174 419.708 437.766 419.565 438.361 419.601C438.956 419.637 439.526 419.849 440 420.21C440.472 420.632 440.84 421.158 441.074 421.746C441.309 422.334 441.403 422.969 441.35 423.6C441.213 424.955 440.666 426.235 439.78 427.27C438.895 428.391 437.827 429.355 436.62 430.12C435.404 430.921 433.976 431.339 432.52 431.32C431.076 431.215 429.706 430.639 428.62 429.68C427.545 428.752 426.714 427.574 426.2 426.25C425.705 424.97 425.411 423.62 425.33 422.25C425.223 420.929 425.304 419.599 425.57 418.3C425.8 417.1 426.471 416.03 427.45 415.3C427.9 414.964 428.434 414.758 428.992 414.703C429.551 414.649 430.114 414.748 430.62 414.99C431.061 415.273 431.414 415.672 431.642 416.143C431.869 416.614 431.962 417.139 431.91 417.66C431.855 418.67 431.538 419.649 430.99 420.5C429.974 421.946 428.524 423.032 426.85 423.6C425.611 424.008 424.298 424.145 423 424C421.843 423.854 420.717 423.516 419.67 423Z" fill="#263238"/>
</svg>
