<svg xmlns="http://www.w3.org/2000/svg" version="1.1" xmlns:xlink="http://www.w3.org/1999/xlink" xmlns:svgjs="http://svgjs.dev/svgjs" width="1000" height="262" viewBox="0 0 1000 262"><g transform="matrix(1,0,0,1,-0.6060605526518543,0.19395128000377326)"><svg viewBox="0 0 396 104" data-background-color="#444444" preserveAspectRatio="xMidYMid meet" height="262" width="1000" xmlns="http://www.w3.org/2000/svg" xmlns:xlink="http://www.w3.org/1999/xlink"><g id="tight-bounds" transform="matrix(1,0,0,1,0.24000002114985364,-0.07698829435264543)"><svg viewBox="0 0 395.52 104.15397658870532" height="104.15397658870532" width="395.52"><g><svg viewBox="0 0 560.7831187264776 147.6734218729235" height="104.15397658870532" width="395.52"><g transform="matrix(1,0,0,1,0,20.409278999803476)"><svg viewBox="0 0 395.52 106.85486387331656" height="106.85486387331656" width="395.52"><g id="textblocktransform"><svg viewBox="0 0 395.52 106.85486387331656" height="106.85486387331656" width="395.52" id="textblock"><g><svg viewBox="0 0 395.52 74.50861948505629" height="74.50861948505629" width="395.52"><g transform="matrix(1,0,0,1,0,0)"><svg width="395.52" viewBox="1.2200000286102295 -35.54999923706055 188.67999267578125 35.54999923706055" height="74.50861948505629" data-palette-color="#ffffff"><path d="M17.29-35.55L17.29 0 12.6 0 12.6-35.55 17.29-35.55ZM28.69-35.55L28.69-31.71 1.22-31.71 1.22-35.55 28.69-35.55ZM33.96-35.55L45.73-35.55Q49.73-35.55 52.51-34.33 55.3-33.11 56.75-30.73 58.2-28.34 58.2-24.88L58.2-24.88Q58.2-22.44 57.21-20.43 56.22-18.43 54.37-17.02 52.51-15.6 49.95-14.92L49.95-14.92 48.63-14.4 37.6-14.4 37.55-18.21 45.85-18.21Q48.39-18.21 50.07-19.12 51.76-20.02 52.6-21.53 53.44-23.05 53.44-24.88L53.44-24.88Q53.44-27.98 51.61-29.85 49.78-31.71 45.73-31.71L45.73-31.71 38.69-31.71 38.69 0 33.96 0 33.96-35.55ZM54.69 0L46.07-16.11 51.02-16.11 59.76-0.29 59.76 0 54.69 0ZM69.82-35.55L69.82 0 65.08 0 65.08-35.55 69.82-35.55ZM79.85-35.55L84.47-35.55 96.06-6.49 107.66-35.55 112.27-35.55 97.84 0 94.26 0 79.85-35.55ZM78.36-35.55L82.41-35.55 83.07-13.89 83.07 0 78.36 0 78.36-35.55ZM109.71-35.55L113.76-35.55 113.76 0 109.05 0 109.05-13.89 109.71-35.55ZM135.22-32.42L123.48 0 118.59 0 132.17-35.55 135.29-35.55 135.22-32.42ZM145.06 0L133.27-32.42 133.22-35.55 136.32-35.55 149.92 0 145.06 0ZM144.47-13.13L144.47-9.3 124.48-9.3 124.48-13.13 144.47-13.13ZM159.78-35.55L159.78 0 155.04 0 155.04-35.55 159.78-35.55ZM189.9-3.81L189.9 0 172.13 0 172.13-3.81 189.9-3.81ZM173.06-35.55L173.06 0 168.32 0 168.32-35.55 173.06-35.55Z" opacity="1" transform="matrix(1,0,0,1,0,0)" fill="#ffffff" class="wordmark-text-0" data-fill-palette-color="primary" id="text-0"></path></svg></g></svg></g><g transform="matrix(1,0,0,1,163.31020800000002,92.09831633861043)"><svg viewBox="0 0 232.20979199999996 14.75654753470612" height="14.75654753470612" width="232.20979199999996"><g transform="matrix(1,0,0,1,0,0)"><svg width="232.20979199999996" viewBox="3.5 -35.599998474121094 733.239990234375 46.599998474121094" height="14.75654753470612" data-palette-color="#00d1cd"><path d="M27.25 0.6L27.25 0.6Q24.45 0.6 22.33-0.68 20.2-1.95 19-4.15 17.8-6.35 17.8-9.1L17.8-9.1 17.8-26.55Q17.8-27.9 17.15-29 16.5-30.1 15.4-30.75 14.3-31.4 13-31.4L13-31.4Q11.7-31.4 10.63-30.75 9.55-30.1 8.93-29 8.3-27.9 8.3-26.55L8.3-26.55 8.3 0 3.5 0 3.5-25.9Q3.5-28.65 4.7-30.85 5.9-33.05 8.05-34.33 10.2-35.6 13-35.6L13-35.6Q15.85-35.6 18-34.33 20.15-33.05 21.35-30.85 22.55-28.65 22.55-25.9L22.55-25.9 22.55-8.45Q22.55-7.1 23.2-6 23.85-4.9 24.93-4.25 26-3.6 27.25-3.6L27.25-3.6Q28.5-3.6 29.55-4.25 30.6-4.9 31.23-6 31.85-7.1 31.85-8.45L31.85-8.45 31.85-35 36.65-35 36.65-9.1Q36.65-6.35 35.45-4.15 34.25-1.95 32.15-0.68 30.05 0.6 27.25 0.6ZM66.1 0L52.4 0Q49.5 0 47.27-1.38 45.05-2.75 43.8-5 42.55-7.25 42.55-9.9L42.55-9.9Q42.55-12.3 43.67-14.4 44.8-16.5 46.95-17.7L46.95-17.7Q44.85-19.05 43.75-21.05 42.65-23.05 42.65-25.25L42.65-25.25Q42.65-27.95 43.92-30.15 45.2-32.35 47.4-33.68 49.6-35 52.25-35L52.25-35 66.1-35 66.1-30.75 52.8-30.75Q51.25-30.75 50.05-30 48.85-29.25 48.15-28.03 47.45-26.8 47.45-25.25L47.45-25.25Q47.45-23.8 48.17-22.6 48.9-21.4 50.15-20.68 51.4-19.95 52.9-19.95L52.9-19.95 64.25-19.95 64.25-15.7 53.25-15.7Q51.4-15.7 50.07-14.88 48.75-14.05 48.02-12.73 47.3-11.4 47.3-9.9L47.3-9.9Q47.3-8.4 48-7.1 48.7-5.8 50-5.03 51.3-4.25 53.05-4.25L53.05-4.25 66.1-4.25 66.1 0ZM85.15 0.6L85.15 0.6Q81.25 0.6 78.22-1.03 75.2-2.65 73.5-5.68 71.8-8.7 71.8-12.85L71.8-12.85 71.8-35 76.6-35 76.6-12.55Q76.6-10.1 77.62-8.08 78.65-6.05 80.57-4.83 82.5-3.6 85.15-3.6L85.15-3.6Q87.75-3.6 89.67-4.83 91.6-6.05 92.65-8.08 93.7-10.1 93.7-12.55L93.7-12.55 93.7-35 98.5-35 98.5-12.55Q98.5-10.1 99.52-8.08 100.55-6.05 102.47-4.83 104.4-3.6 107.05-3.6L107.05-3.6Q109.65-3.6 111.57-4.83 113.5-6.05 114.52-8.08 115.55-10.1 115.55-12.55L115.55-12.55 115.55-35 120.35-35 120.35-12.85Q120.35-8.7 118.65-5.68 116.95-2.65 113.95-1.03 110.95 0.6 107.05 0.6L107.05 0.6Q104.7 0.6 102.57-0.08 100.45-0.75 98.8-2.18 97.15-3.6 96.1-5.7L96.1-5.7Q95.1-3.6 93.4-2.2 91.7-0.8 89.57-0.1 87.45 0.6 85.15 0.6ZM143.19 0L127.49 0 127.49-4.25 142.64-4.25Q144.39-4.25 145.64-5.08 146.89-5.9 147.59-7.2 148.29-8.5 148.29-9.95L148.29-9.95Q148.29-11.45 147.62-12.73 146.94-14 145.72-14.78 144.49-15.55 142.74-15.55L142.74-15.55 136.14-15.55Q133.19-15.55 130.94-16.78 128.69-18 127.42-20.18 126.14-22.35 126.14-25.1L126.14-25.1Q126.14-27.9 127.37-30.15 128.59-32.4 130.82-33.7 133.04-35 135.94-35L135.94-35 150.79-35 150.79-30.75 136.39-30.75Q134.74-30.75 133.49-29.98 132.24-29.2 131.59-27.98 130.94-26.75 130.94-25.35L130.94-25.35Q130.94-24 131.57-22.78 132.19-21.55 133.42-20.8 134.64-20.05 136.24-20.05L136.24-20.05 142.99-20.05Q146.14-20.05 148.39-18.8 150.64-17.55 151.84-15.4 153.04-13.25 153.04-10.5L153.04-10.5Q153.04-7.45 151.82-5.08 150.59-2.7 148.34-1.35 146.09 0 143.19 0L143.19 0ZM177.29 0L167.89 0Q165.04 0 162.97-1.23 160.89-2.45 159.77-4.58 158.64-6.7 158.64-9.35L158.64-9.35 158.64-35 163.44-35 163.44-8.75Q163.44-6.8 164.67-5.53 165.89-4.25 167.89-4.25L167.89-4.25 177.29-4.25 177.29 0ZM204.74 0L191.04 0Q188.14 0 185.91-1.38 183.69-2.75 182.44-5 181.19-7.25 181.19-9.9L181.19-9.9Q181.19-12.3 182.31-14.4 183.44-16.5 185.59-17.7L185.59-17.7Q183.49-19.05 182.39-21.05 181.29-23.05 181.29-25.25L181.29-25.25Q181.29-27.95 182.56-30.15 183.84-32.35 186.04-33.68 188.24-35 190.89-35L190.89-35 204.74-35 204.74-30.75 191.44-30.75Q189.89-30.75 188.69-30 187.49-29.25 186.79-28.03 186.09-26.8 186.09-25.25L186.09-25.25Q186.09-23.8 186.81-22.6 187.54-21.4 188.79-20.68 190.04-19.95 191.54-19.95L191.54-19.95 202.89-19.95 202.89-15.7 191.89-15.7Q190.04-15.7 188.71-14.88 187.39-14.05 186.66-12.73 185.94-11.4 185.94-9.9L185.94-9.9Q185.94-8.4 186.64-7.1 187.34-5.8 188.64-5.03 189.94-4.25 191.69-4.25L191.69-4.25 204.74-4.25 204.74 0ZM230.34 0L227.99 0Q225.14 0 223.06-1.23 220.99-2.45 219.86-4.58 218.74-6.7 218.74-9.35L218.74-9.35 218.74-30.75 208.09-30.75 208.09-35 234.19-35 234.19-30.75 223.54-30.75 223.54-8.75Q223.54-6.8 224.76-5.53 225.99-4.25 228.04-4.25L228.04-4.25 230.34-4.25 230.34 0ZM258.73 0L256.38 0Q253.53 0 251.46-1.23 249.38-2.45 248.26-4.58 247.13-6.7 247.13-9.35L247.13-9.35 247.13-30.75 236.48-30.75 236.48-35 262.58-35 262.58-30.75 251.93-30.75 251.93-8.75Q251.93-6.8 253.16-5.53 254.38-4.25 256.43-4.25L256.43-4.25 258.73-4.25 258.73 0ZM289.68 0L275.98 0Q273.08 0 270.86-1.38 268.63-2.75 267.38-5 266.13-7.25 266.13-9.9L266.13-9.9Q266.13-12.3 267.25-14.4 268.38-16.5 270.53-17.7L270.53-17.7Q268.43-19.05 267.33-21.05 266.23-23.05 266.23-25.25L266.23-25.25Q266.23-27.95 267.5-30.15 268.78-32.35 270.98-33.68 273.18-35 275.83-35L275.83-35 289.68-35 289.68-30.75 276.38-30.75Q274.83-30.75 273.63-30 272.43-29.25 271.73-28.03 271.03-26.8 271.03-25.25L271.03-25.25Q271.03-23.8 271.75-22.6 272.48-21.4 273.73-20.68 274.98-19.95 276.48-19.95L276.48-19.95 287.83-19.95 287.83-15.7 276.83-15.7Q274.98-15.7 273.66-14.88 272.33-14.05 271.61-12.73 270.88-11.4 270.88-9.9L270.88-9.9Q270.88-8.4 271.58-7.1 272.28-5.8 273.58-5.03 274.88-4.25 276.63-4.25L276.63-4.25 289.68-4.25 289.68 0ZM300.48 0L295.68 0 295.68-35 311.03-35Q314.33-35 317.03-33.58 319.73-32.15 321.33-29.58 322.93-27 322.93-23.55L322.93-23.55Q322.93-20.05 321.15-17.38 319.38-14.7 316.38-13.4L316.38-13.4 320.13-5.8Q320.53-5 321-4.63 321.48-4.25 322.38-4.25L322.38-4.25 324.88-4.25 324.88 0 321.63 0Q319.68 0 318.2-1 316.73-2 315.78-3.7L315.78-3.7 311.58-12.25Q311.08-12.2 310.5-12.18 309.93-12.15 309.33-12.15L309.33-12.15 300.48-12.15 300.48 0ZM300.48-30.75L300.48-16.4 310.38-16.4Q312.53-16.4 314.3-17.25 316.08-18.1 317.1-19.7 318.13-21.3 318.13-23.55L318.13-23.55Q318.13-25.85 317.08-27.45 316.03-29.05 314.28-29.9 312.53-30.75 310.43-30.75L310.43-30.75 300.48-30.75ZM359.42 0L357.07 0Q354.22 0 352.15-1.23 350.07-2.45 348.95-4.58 347.82-6.7 347.82-9.35L347.82-9.35 347.82-30.75 337.17-30.75 337.17-35 363.27-35 363.27-30.75 352.62-30.75 352.62-8.75Q352.62-6.8 353.85-5.53 355.07-4.25 357.12-4.25L357.12-4.25 359.42-4.25 359.42 0ZM373.02 0L368.22 0 368.22-35 373.02-35 373.02-19.95 391.47-19.95 391.47-35 396.27-35 396.27 0 391.47 0 391.47-15.7 373.02-15.7 373.02 0ZM426.02 0L412.32 0Q409.42 0 407.19-1.38 404.97-2.75 403.72-5 402.47-7.25 402.47-9.9L402.47-9.9Q402.47-12.3 403.59-14.4 404.72-16.5 406.87-17.7L406.87-17.7Q404.77-19.05 403.67-21.05 402.57-23.05 402.57-25.25L402.57-25.25Q402.57-27.95 403.84-30.15 405.12-32.35 407.32-33.68 409.52-35 412.17-35L412.17-35 426.02-35 426.02-30.75 412.72-30.75Q411.17-30.75 409.97-30 408.77-29.25 408.07-28.03 407.37-26.8 407.37-25.25L407.37-25.25Q407.37-23.8 408.09-22.6 408.82-21.4 410.07-20.68 411.32-19.95 412.82-19.95L412.82-19.95 424.17-19.95 424.17-15.7 413.17-15.7Q411.32-15.7 409.99-14.88 408.67-14.05 407.94-12.73 407.22-11.4 407.22-9.9L407.22-9.9Q407.22-8.4 407.92-7.1 408.62-5.8 409.92-5.03 411.22-4.25 412.97-4.25L412.97-4.25 426.02-4.25 426.02 0ZM450.06 0L445.26 0 445.26-35 460.61-35Q463.91-35 466.61-33.58 469.31-32.15 470.91-29.58 472.51-27 472.51-23.55L472.51-23.55Q472.51-20.05 470.74-17.38 468.96-14.7 465.96-13.4L465.96-13.4 469.71-5.8Q470.11-5 470.59-4.63 471.06-4.25 471.96-4.25L471.96-4.25 474.46-4.25 474.46 0 471.21 0Q469.26 0 467.79-1 466.31-2 465.36-3.7L465.36-3.7 461.16-12.25Q460.66-12.2 460.09-12.18 459.51-12.15 458.91-12.15L458.91-12.15 450.06-12.15 450.06 0ZM450.06-30.75L450.06-16.4 459.96-16.4Q462.11-16.4 463.89-17.25 465.66-18.1 466.69-19.7 467.71-21.3 467.71-23.55L467.71-23.55Q467.71-25.85 466.66-27.45 465.61-29.05 463.86-29.9 462.11-30.75 460.01-30.75L460.01-30.75 450.06-30.75ZM496.21 0L477.96 0 477.96-4.25 484.71-4.25 484.71-30.75 477.96-30.75 477.96-35 496.21-35 496.21-30.75 489.51-30.75 489.51-4.25 496.21-4.25 496.21 0ZM528.46 11L528.46 11Q525.96 11 524.03 10.03 522.11 9.05 521.01 7.15 519.91 5.25 519.91 2.6L519.91 2.6Q519.91 1.95 519.96 1.28 520.01 0.6 520.11-0.1L520.11-0.1Q516.01 0.15 512.51-1.05 509.01-2.25 506.41-4.63 503.81-7 502.36-10.38 500.91-13.75 500.91-17.8L500.91-17.8Q500.91-21.5 502.16-24.73 503.41-27.95 505.76-30.4 508.11-32.85 511.43-34.23 514.76-35.6 518.81-35.6L518.81-35.6Q522.86-35.6 526.16-34.25 529.46-32.9 531.81-30.48 534.16-28.05 535.43-24.9 536.71-21.75 536.71-18.1L536.71-18.1 536.71 2.05Q536.71 4.75 535.71 6.78 534.71 8.8 532.88 9.9 531.06 11 528.46 11ZM528.16 6.7L528.16 6.7Q529.81 6.7 530.86 5.53 531.91 4.35 531.91 2.15L531.91 2.15 531.91-9.75Q529.36-8.1 527.86-6.4 526.36-4.7 525.63-3.1 524.91-1.5 524.68-0.15 524.46 1.2 524.46 2.1L524.46 2.1Q524.46 3.55 524.98 4.58 525.51 5.6 526.36 6.15 527.21 6.7 528.16 6.7ZM518.81-4.2L518.81-4.2Q519.61-4.2 520.31-4.28 521.01-4.35 521.81-4.55L521.81-4.55Q522.51-6.25 523.78-8 525.06-9.75 527.03-11.48 529.01-13.2 531.91-14.7L531.91-14.7 531.91-18.1Q531.91-20.95 530.93-23.38 529.96-25.8 528.18-27.58 526.41-29.35 524.01-30.38 521.61-31.4 518.81-31.4L518.81-31.4Q515.96-31.4 513.58-30.38 511.21-29.35 509.43-27.5 507.66-25.65 506.68-23.18 505.71-20.7 505.71-17.8L505.71-17.8Q505.71-14.9 506.68-12.43 507.66-9.95 509.43-8.1 511.21-6.25 513.58-5.23 515.96-4.2 518.81-4.2ZM548.5 0L543.7 0 543.7-35 548.5-35 548.5-19.95 566.95-19.95 566.95-35 571.75-35 571.75 0 566.95 0 566.95-15.7 548.5-15.7 548.5 0ZM598.95 0L596.6 0Q593.75 0 591.68-1.23 589.6-2.45 588.48-4.58 587.35-6.7 587.35-9.35L587.35-9.35 587.35-30.75 576.7-30.75 576.7-35 602.8-35 602.8-30.75 592.15-30.75 592.15-8.75Q592.15-6.8 593.38-5.53 594.6-4.25 596.65-4.25L596.65-4.25 598.95-4.25 598.95 0ZM631.05 0.6L631.05 0.6Q627.15 0.6 624.12-1.03 621.1-2.65 619.4-5.68 617.7-8.7 617.7-12.85L617.7-12.85 617.7-35 622.5-35 622.5-12.55Q622.5-10.1 623.52-8.08 624.55-6.05 626.47-4.83 628.4-3.6 631.05-3.6L631.05-3.6Q633.65-3.6 635.57-4.83 637.5-6.05 638.55-8.08 639.6-10.1 639.6-12.55L639.6-12.55 639.6-35 644.4-35 644.4-12.55Q644.4-10.1 645.42-8.08 646.45-6.05 648.37-4.83 650.3-3.6 652.95-3.6L652.95-3.6Q655.55-3.6 657.47-4.83 659.4-6.05 660.42-8.08 661.45-10.1 661.45-12.55L661.45-12.55 661.45-35 666.25-35 666.25-12.85Q666.25-8.7 664.55-5.68 662.85-2.65 659.85-1.03 656.85 0.6 652.95 0.6L652.95 0.6Q650.6 0.6 648.47-0.08 646.35-0.75 644.7-2.18 643.05-3.6 642-5.7L642-5.7Q641-3.6 639.3-2.2 637.6-0.8 635.47-0.1 633.35 0.6 631.05 0.6ZM674.89 0L669.84 0 681.74-31.65Q682.54-33.7 683.94-34.65 685.34-35.6 687.19-35.6L687.19-35.6Q689.04-35.6 690.47-34.68 691.89-33.75 692.64-31.7L692.64-31.7 704.59 0 699.34 0 696.29-8.45 677.99-8.45 674.89 0ZM685.89-30.05L679.49-12.7 694.84-12.7 688.59-30.05Q688.34-30.7 688.04-31.05 687.74-31.4 687.19-31.4L687.19-31.4Q686.69-31.4 686.39-31.05 686.09-30.7 685.89-30.05L685.89-30.05ZM720.09 0L715.29 0 715.29-10.15Q711.64-10.65 709.09-12.53 706.54-14.4 705.19-17.4 703.84-20.4 703.84-24.15L703.84-24.15 703.84-35 708.64-35 708.64-23.75Q708.64-21.15 709.72-18.98 710.79-16.8 712.82-15.48 714.84-14.15 717.74-14.15L717.74-14.15Q720.64-14.15 722.67-15.48 724.69-16.8 725.74-18.98 726.79-21.15 726.79-23.75L726.79-23.75 726.79-35 731.59-35 731.59-24.15Q731.59-20.4 730.24-17.4 728.89-14.4 726.32-12.5 723.74-10.6 720.09-10.15L720.09-10.15 720.09 0ZM733.44 0.5L733.44 0.5Q732.09 0.5 731.11-0.48 730.14-1.45 730.14-2.8L730.14-2.8Q730.14-4.15 731.11-5.13 732.09-6.1 733.44-6.1L733.44-6.1Q734.79-6.1 735.76-5.13 736.74-4.15 736.74-2.8L736.74-2.8Q736.74-1.9 736.31-1.15 735.89-0.4 735.14 0.05 734.39 0.5 733.44 0.5Z" opacity="1" transform="matrix(1,0,0,1,0,0)" fill="#00d1cd" class="slogan-text-1" data-fill-palette-color="secondary" id="text-1"></path></svg></g></svg></g></svg></g></svg></g><g transform="matrix(1,0,0,1,413.1096968535541,0)"><svg viewBox="0 0 147.6734218729235 147.6734218729235" height="147.6734218729235" width="147.6734218729235"><g data-palette-color="#00d1cd"><rect width="40.36406864526576" height="147.6734218729235" fill="#00d1cd" stroke="transparent" data-fill-palette-color="accent" x="0" fill-opacity="1"></rect><rect width="40.36406864526576" height="147.6734218729235" fill="#00d1cd" stroke="transparent" data-fill-palette-color="accent" x="49.22447395764117" fill-opacity="0.75"></rect><rect width="40.36406864526576" height="147.6734218729235" fill="#00d1cd" stroke="transparent" data-fill-palette-color="accent" x="98.44894791528235" fill-opacity="0.5"></rect></g></svg></g></svg></g><defs></defs></svg><rect width="395.52" height="104.15397658870532" fill="none" stroke="none" visibility="hidden"></rect></g></svg></g></svg>