<svg width="30" height="30" viewBox="0 0 30 30" fill="none" xmlns="http://www.w3.org/2000/svg">
<path d="M2 24.75C2 23.0261 2.68482 21.3728 3.90381 20.1538C5.12279 18.9348 6.77609 18.25 8.5 18.25H21.5C23.2239 18.25 24.8772 18.9348 26.0962 20.1538C27.3152 21.3728 28 23.0261 28 24.75C28 25.612 27.6576 26.4386 27.0481 27.0481C26.4386 27.6576 25.612 28 24.75 28H5.25C4.38805 28 3.5614 27.6576 2.9519 27.0481C2.34241 26.4386 2 25.612 2 24.75Z" stroke="#C8C8C8" stroke-width="2.5" stroke-linejoin="round"/>
<path d="M15 11.75C17.6924 11.75 19.875 9.56739 19.875 6.875C19.875 4.18261 17.6924 2 15 2C12.3076 2 10.125 4.18261 10.125 6.875C10.125 9.56739 12.3076 11.75 15 11.75Z" stroke="#C8C8C8" stroke-width="2.5"/>
</svg>
